<mxfile host="app.diagrams.net" agent="Mozilla/5.0 (Macintosh; Intel Mac OS X 10_15_7) AppleWebKit/537.36 (KHTML, like Gecko) Chrome/133.0.0.0 Safari/537.36" version="26.0.16">
  <diagram id="R2lEEEUBdFMjLlhIrx00" name="Page-1">
    <mxGraphModel grid="1" page="1" gridSize="10" guides="1" tooltips="1" connect="1" arrows="1" fold="1" pageScale="1" pageWidth="850" pageHeight="1100" math="0" shadow="0" extFonts="Permanent Marker^https://fonts.googleapis.com/css?family=Permanent+Marker">
      <root>
        <mxCell id="0" />
        <mxCell id="1" parent="0" />
        <mxCell id="C-vyLk0tnHw3VtMMgP7b-2" value="INVESTMENT" style="shape=table;startSize=30;container=1;collapsible=1;childLayout=tableLayout;fixedRows=1;rowLines=0;fontStyle=1;align=center;resizeLast=1;" vertex="1" parent="1">
          <mxGeometry x="290" y="-550" width="250" height="170" as="geometry" />
        </mxCell>
        <mxCell id="C-vyLk0tnHw3VtMMgP7b-3" value="" style="shape=partialRectangle;collapsible=0;dropTarget=0;pointerEvents=0;fillColor=none;points=[[0,0.5],[1,0.5]];portConstraint=eastwest;top=0;left=0;right=0;bottom=1;" vertex="1" parent="C-vyLk0tnHw3VtMMgP7b-2">
          <mxGeometry y="30" width="250" height="30" as="geometry" />
        </mxCell>
        <mxCell id="C-vyLk0tnHw3VtMMgP7b-4" value="PK" style="shape=partialRectangle;overflow=hidden;connectable=0;fillColor=none;top=0;left=0;bottom=0;right=0;fontStyle=1;" vertex="1" parent="C-vyLk0tnHw3VtMMgP7b-3">
          <mxGeometry width="30" height="30" as="geometry">
            <mxRectangle width="30" height="30" as="alternateBounds" />
          </mxGeometry>
        </mxCell>
        <mxCell id="C-vyLk0tnHw3VtMMgP7b-5" value="investment_id" style="shape=partialRectangle;overflow=hidden;connectable=0;fillColor=none;top=0;left=0;bottom=0;right=0;align=left;spacingLeft=6;fontStyle=5;" vertex="1" parent="C-vyLk0tnHw3VtMMgP7b-3">
          <mxGeometry x="30" width="220" height="30" as="geometry">
            <mxRectangle width="220" height="30" as="alternateBounds" />
          </mxGeometry>
        </mxCell>
        <mxCell id="C-vyLk0tnHw3VtMMgP7b-6" value="" style="shape=partialRectangle;collapsible=0;dropTarget=0;pointerEvents=0;fillColor=none;points=[[0,0.5],[1,0.5]];portConstraint=eastwest;top=0;left=0;right=0;bottom=0;" vertex="1" parent="C-vyLk0tnHw3VtMMgP7b-2">
          <mxGeometry y="60" width="250" height="30" as="geometry" />
        </mxCell>
        <mxCell id="C-vyLk0tnHw3VtMMgP7b-7" value="FK1" style="shape=partialRectangle;overflow=hidden;connectable=0;fillColor=none;top=0;left=0;bottom=0;right=0;" vertex="1" parent="C-vyLk0tnHw3VtMMgP7b-6">
          <mxGeometry width="30" height="30" as="geometry">
            <mxRectangle width="30" height="30" as="alternateBounds" />
          </mxGeometry>
        </mxCell>
        <mxCell id="C-vyLk0tnHw3VtMMgP7b-8" value="customer_id" style="shape=partialRectangle;overflow=hidden;connectable=0;fillColor=none;top=0;left=0;bottom=0;right=0;align=left;spacingLeft=6;" vertex="1" parent="C-vyLk0tnHw3VtMMgP7b-6">
          <mxGeometry x="30" width="220" height="30" as="geometry">
            <mxRectangle width="220" height="30" as="alternateBounds" />
          </mxGeometry>
        </mxCell>
        <mxCell id="C-vyLk0tnHw3VtMMgP7b-9" value="" style="shape=partialRectangle;collapsible=0;dropTarget=0;pointerEvents=0;fillColor=none;points=[[0,0.5],[1,0.5]];portConstraint=eastwest;top=0;left=0;right=0;bottom=0;" vertex="1" parent="C-vyLk0tnHw3VtMMgP7b-2">
          <mxGeometry y="90" width="250" height="80" as="geometry" />
        </mxCell>
        <mxCell id="C-vyLk0tnHw3VtMMgP7b-10" value="" style="shape=partialRectangle;overflow=hidden;connectable=0;fillColor=none;top=0;left=0;bottom=0;right=0;" vertex="1" parent="C-vyLk0tnHw3VtMMgP7b-9">
          <mxGeometry width="30" height="80" as="geometry">
            <mxRectangle width="30" height="80" as="alternateBounds" />
          </mxGeometry>
        </mxCell>
        <mxCell id="C-vyLk0tnHw3VtMMgP7b-11" value="investment_type&#xa;Investment_amount&#xa;risk_profile&#xa;maturity_date" style="shape=partialRectangle;overflow=hidden;connectable=0;fillColor=none;top=0;left=0;bottom=0;right=0;align=left;spacingLeft=6;fontSize=13;" vertex="1" parent="C-vyLk0tnHw3VtMMgP7b-9">
          <mxGeometry x="30" width="220" height="80" as="geometry">
            <mxRectangle width="220" height="80" as="alternateBounds" />
          </mxGeometry>
        </mxCell>
        <mxCell id="nB46SJz7qmsPy6LxUtB7-1" value="ONLINE BANKING" style="shape=table;startSize=20;container=1;collapsible=1;childLayout=tableLayout;fixedRows=1;rowLines=0;fontStyle=1;align=center;resizeLast=1;" vertex="1" parent="1">
          <mxGeometry x="90" y="-270" width="250" height="170" as="geometry" />
        </mxCell>
        <mxCell id="nB46SJz7qmsPy6LxUtB7-2" value="" style="shape=partialRectangle;collapsible=0;dropTarget=0;pointerEvents=0;fillColor=none;points=[[0,0.5],[1,0.5]];portConstraint=eastwest;top=0;left=0;right=0;bottom=1;" vertex="1" parent="nB46SJz7qmsPy6LxUtB7-1">
          <mxGeometry y="20" width="250" height="30" as="geometry" />
        </mxCell>
        <mxCell id="nB46SJz7qmsPy6LxUtB7-3" value="PK" style="shape=partialRectangle;overflow=hidden;connectable=0;fillColor=none;top=0;left=0;bottom=0;right=0;fontStyle=1;" vertex="1" parent="nB46SJz7qmsPy6LxUtB7-2">
          <mxGeometry width="30" height="30" as="geometry">
            <mxRectangle width="30" height="30" as="alternateBounds" />
          </mxGeometry>
        </mxCell>
        <mxCell id="nB46SJz7qmsPy6LxUtB7-4" value="online_banking_id" style="shape=partialRectangle;overflow=hidden;connectable=0;fillColor=none;top=0;left=0;bottom=0;right=0;align=left;spacingLeft=6;fontStyle=5;" vertex="1" parent="nB46SJz7qmsPy6LxUtB7-2">
          <mxGeometry x="30" width="220" height="30" as="geometry">
            <mxRectangle width="220" height="30" as="alternateBounds" />
          </mxGeometry>
        </mxCell>
        <mxCell id="nB46SJz7qmsPy6LxUtB7-5" value="" style="shape=partialRectangle;collapsible=0;dropTarget=0;pointerEvents=0;fillColor=none;points=[[0,0.5],[1,0.5]];portConstraint=eastwest;top=0;left=0;right=0;bottom=0;" vertex="1" parent="nB46SJz7qmsPy6LxUtB7-1">
          <mxGeometry y="50" width="250" height="30" as="geometry" />
        </mxCell>
        <mxCell id="nB46SJz7qmsPy6LxUtB7-6" value="FK1" style="shape=partialRectangle;overflow=hidden;connectable=0;fillColor=none;top=0;left=0;bottom=0;right=0;" vertex="1" parent="nB46SJz7qmsPy6LxUtB7-5">
          <mxGeometry width="30" height="30" as="geometry">
            <mxRectangle width="30" height="30" as="alternateBounds" />
          </mxGeometry>
        </mxCell>
        <mxCell id="nB46SJz7qmsPy6LxUtB7-7" value="customer_id" style="shape=partialRectangle;overflow=hidden;connectable=0;fillColor=none;top=0;left=0;bottom=0;right=0;align=left;spacingLeft=6;" vertex="1" parent="nB46SJz7qmsPy6LxUtB7-5">
          <mxGeometry x="30" width="220" height="30" as="geometry">
            <mxRectangle width="220" height="30" as="alternateBounds" />
          </mxGeometry>
        </mxCell>
        <mxCell id="nB46SJz7qmsPy6LxUtB7-8" value="" style="shape=partialRectangle;collapsible=0;dropTarget=0;pointerEvents=0;fillColor=none;points=[[0,0.5],[1,0.5]];portConstraint=eastwest;top=0;left=0;right=0;bottom=0;" vertex="1" parent="nB46SJz7qmsPy6LxUtB7-1">
          <mxGeometry y="80" width="250" height="80" as="geometry" />
        </mxCell>
        <mxCell id="nB46SJz7qmsPy6LxUtB7-9" value="" style="shape=partialRectangle;overflow=hidden;connectable=0;fillColor=none;top=0;left=0;bottom=0;right=0;" vertex="1" parent="nB46SJz7qmsPy6LxUtB7-8">
          <mxGeometry width="30" height="80" as="geometry">
            <mxRectangle width="30" height="80" as="alternateBounds" />
          </mxGeometry>
        </mxCell>
        <mxCell id="nB46SJz7qmsPy6LxUtB7-10" value="username&#xa;password_hash&#xa;last_login_timestamp&#xa;two_factor_authentication_status" style="shape=partialRectangle;overflow=hidden;connectable=0;fillColor=none;top=0;left=0;bottom=0;right=0;align=left;spacingLeft=6;fontSize=13;" vertex="1" parent="nB46SJz7qmsPy6LxUtB7-8">
          <mxGeometry x="30" width="220" height="80" as="geometry">
            <mxRectangle width="220" height="80" as="alternateBounds" />
          </mxGeometry>
        </mxCell>
        <mxCell id="nB46SJz7qmsPy6LxUtB7-11" value="BENEFICIARY" style="shape=table;startSize=30;container=1;collapsible=1;childLayout=tableLayout;fixedRows=1;rowLines=0;fontStyle=1;align=center;resizeLast=1;" vertex="1" parent="1">
          <mxGeometry x="120" y="-50" width="250" height="170" as="geometry" />
        </mxCell>
        <mxCell id="nB46SJz7qmsPy6LxUtB7-12" value="" style="shape=partialRectangle;collapsible=0;dropTarget=0;pointerEvents=0;fillColor=none;points=[[0,0.5],[1,0.5]];portConstraint=eastwest;top=0;left=0;right=0;bottom=1;" vertex="1" parent="nB46SJz7qmsPy6LxUtB7-11">
          <mxGeometry y="30" width="250" height="30" as="geometry" />
        </mxCell>
        <mxCell id="nB46SJz7qmsPy6LxUtB7-13" value="PK" style="shape=partialRectangle;overflow=hidden;connectable=0;fillColor=none;top=0;left=0;bottom=0;right=0;fontStyle=1;" vertex="1" parent="nB46SJz7qmsPy6LxUtB7-12">
          <mxGeometry width="30" height="30" as="geometry">
            <mxRectangle width="30" height="30" as="alternateBounds" />
          </mxGeometry>
        </mxCell>
        <mxCell id="nB46SJz7qmsPy6LxUtB7-14" value="beneficiary_id" style="shape=partialRectangle;overflow=hidden;connectable=0;fillColor=none;top=0;left=0;bottom=0;right=0;align=left;spacingLeft=6;fontStyle=5;" vertex="1" parent="nB46SJz7qmsPy6LxUtB7-12">
          <mxGeometry x="30" width="220" height="30" as="geometry">
            <mxRectangle width="220" height="30" as="alternateBounds" />
          </mxGeometry>
        </mxCell>
        <mxCell id="nB46SJz7qmsPy6LxUtB7-18" value="" style="shape=partialRectangle;collapsible=0;dropTarget=0;pointerEvents=0;fillColor=none;points=[[0,0.5],[1,0.5]];portConstraint=eastwest;top=0;left=0;right=0;bottom=0;" vertex="1" parent="nB46SJz7qmsPy6LxUtB7-11">
          <mxGeometry y="60" width="250" height="110" as="geometry" />
        </mxCell>
        <mxCell id="nB46SJz7qmsPy6LxUtB7-19" value="" style="shape=partialRectangle;overflow=hidden;connectable=0;fillColor=none;top=0;left=0;bottom=0;right=0;" vertex="1" parent="nB46SJz7qmsPy6LxUtB7-18">
          <mxGeometry width="30" height="110" as="geometry">
            <mxRectangle width="30" height="110" as="alternateBounds" />
          </mxGeometry>
        </mxCell>
        <mxCell id="nB46SJz7qmsPy6LxUtB7-20" value="name&#xa;relationship&#xa;contact_information&#xa;account_number" style="shape=partialRectangle;overflow=hidden;connectable=0;fillColor=none;top=0;left=0;bottom=0;right=0;align=left;spacingLeft=6;fontSize=13;" vertex="1" parent="nB46SJz7qmsPy6LxUtB7-18">
          <mxGeometry x="30" width="220" height="110" as="geometry">
            <mxRectangle width="220" height="110" as="alternateBounds" />
          </mxGeometry>
        </mxCell>
        <mxCell id="nB46SJz7qmsPy6LxUtB7-21" value="INSURANCE" style="shape=table;startSize=30;container=1;collapsible=1;childLayout=tableLayout;fixedRows=1;rowLines=0;fontStyle=1;align=center;resizeLast=1;" vertex="1" parent="1">
          <mxGeometry x="1900" y="-460" width="250" height="180" as="geometry" />
        </mxCell>
        <mxCell id="nB46SJz7qmsPy6LxUtB7-22" value="" style="shape=partialRectangle;collapsible=0;dropTarget=0;pointerEvents=0;fillColor=none;points=[[0,0.5],[1,0.5]];portConstraint=eastwest;top=0;left=0;right=0;bottom=1;" vertex="1" parent="nB46SJz7qmsPy6LxUtB7-21">
          <mxGeometry y="30" width="250" height="30" as="geometry" />
        </mxCell>
        <mxCell id="nB46SJz7qmsPy6LxUtB7-23" value="PK" style="shape=partialRectangle;overflow=hidden;connectable=0;fillColor=none;top=0;left=0;bottom=0;right=0;fontStyle=1;" vertex="1" parent="nB46SJz7qmsPy6LxUtB7-22">
          <mxGeometry width="30" height="30" as="geometry">
            <mxRectangle width="30" height="30" as="alternateBounds" />
          </mxGeometry>
        </mxCell>
        <mxCell id="nB46SJz7qmsPy6LxUtB7-24" value="insurance_id" style="shape=partialRectangle;overflow=hidden;connectable=0;fillColor=none;top=0;left=0;bottom=0;right=0;align=left;spacingLeft=6;fontStyle=5;" vertex="1" parent="nB46SJz7qmsPy6LxUtB7-22">
          <mxGeometry x="30" width="220" height="30" as="geometry">
            <mxRectangle width="220" height="30" as="alternateBounds" />
          </mxGeometry>
        </mxCell>
        <mxCell id="nB46SJz7qmsPy6LxUtB7-28" value="" style="shape=partialRectangle;collapsible=0;dropTarget=0;pointerEvents=0;fillColor=none;points=[[0,0.5],[1,0.5]];portConstraint=eastwest;top=0;left=0;right=0;bottom=0;" vertex="1" parent="nB46SJz7qmsPy6LxUtB7-21">
          <mxGeometry y="60" width="250" height="120" as="geometry" />
        </mxCell>
        <mxCell id="nB46SJz7qmsPy6LxUtB7-29" value="" style="shape=partialRectangle;overflow=hidden;connectable=0;fillColor=none;top=0;left=0;bottom=0;right=0;" vertex="1" parent="nB46SJz7qmsPy6LxUtB7-28">
          <mxGeometry width="30" height="120" as="geometry">
            <mxRectangle width="30" height="120" as="alternateBounds" />
          </mxGeometry>
        </mxCell>
        <mxCell id="nB46SJz7qmsPy6LxUtB7-30" value="insurance_type&#xa;premium_amount&#xa;policy_number&#xa;coverage_amount&#xa;policy_start_date&#xa;policy_end_date&#xa;claim_status" style="shape=partialRectangle;overflow=hidden;connectable=0;fillColor=none;top=0;left=0;bottom=0;right=0;align=left;spacingLeft=6;fontSize=13;" vertex="1" parent="nB46SJz7qmsPy6LxUtB7-28">
          <mxGeometry x="30" width="220" height="120" as="geometry">
            <mxRectangle width="220" height="120" as="alternateBounds" />
          </mxGeometry>
        </mxCell>
        <mxCell id="nB46SJz7qmsPy6LxUtB7-51" value="BRANCH" style="shape=table;startSize=20;container=1;collapsible=1;childLayout=tableLayout;fixedRows=1;rowLines=0;fontStyle=1;align=center;resizeLast=1;" vertex="1" parent="1">
          <mxGeometry x="620" y="150" width="250" height="170" as="geometry" />
        </mxCell>
        <mxCell id="nB46SJz7qmsPy6LxUtB7-52" value="" style="shape=partialRectangle;collapsible=0;dropTarget=0;pointerEvents=0;fillColor=none;points=[[0,0.5],[1,0.5]];portConstraint=eastwest;top=0;left=0;right=0;bottom=1;" vertex="1" parent="nB46SJz7qmsPy6LxUtB7-51">
          <mxGeometry y="20" width="250" height="30" as="geometry" />
        </mxCell>
        <mxCell id="nB46SJz7qmsPy6LxUtB7-53" value="PK" style="shape=partialRectangle;overflow=hidden;connectable=0;fillColor=none;top=0;left=0;bottom=0;right=0;fontStyle=1;" vertex="1" parent="nB46SJz7qmsPy6LxUtB7-52">
          <mxGeometry width="30" height="30" as="geometry">
            <mxRectangle width="30" height="30" as="alternateBounds" />
          </mxGeometry>
        </mxCell>
        <mxCell id="nB46SJz7qmsPy6LxUtB7-54" value="branch_id" style="shape=partialRectangle;overflow=hidden;connectable=0;fillColor=none;top=0;left=0;bottom=0;right=0;align=left;spacingLeft=6;fontStyle=5;" vertex="1" parent="nB46SJz7qmsPy6LxUtB7-52">
          <mxGeometry x="30" width="220" height="30" as="geometry">
            <mxRectangle width="220" height="30" as="alternateBounds" />
          </mxGeometry>
        </mxCell>
        <mxCell id="nB46SJz7qmsPy6LxUtB7-55" value="" style="shape=partialRectangle;collapsible=0;dropTarget=0;pointerEvents=0;fillColor=none;points=[[0,0.5],[1,0.5]];portConstraint=eastwest;top=0;left=0;right=0;bottom=0;" vertex="1" parent="nB46SJz7qmsPy6LxUtB7-51">
          <mxGeometry y="50" width="250" height="30" as="geometry" />
        </mxCell>
        <mxCell id="nB46SJz7qmsPy6LxUtB7-56" value="FK1" style="shape=partialRectangle;overflow=hidden;connectable=0;fillColor=none;top=0;left=0;bottom=0;right=0;" vertex="1" parent="nB46SJz7qmsPy6LxUtB7-55">
          <mxGeometry width="30" height="30" as="geometry">
            <mxRectangle width="30" height="30" as="alternateBounds" />
          </mxGeometry>
        </mxCell>
        <mxCell id="nB46SJz7qmsPy6LxUtB7-57" value="manager_id" style="shape=partialRectangle;overflow=hidden;connectable=0;fillColor=none;top=0;left=0;bottom=0;right=0;align=left;spacingLeft=6;" vertex="1" parent="nB46SJz7qmsPy6LxUtB7-55">
          <mxGeometry x="30" width="220" height="30" as="geometry">
            <mxRectangle width="220" height="30" as="alternateBounds" />
          </mxGeometry>
        </mxCell>
        <mxCell id="nB46SJz7qmsPy6LxUtB7-58" value="" style="shape=partialRectangle;collapsible=0;dropTarget=0;pointerEvents=0;fillColor=none;points=[[0,0.5],[1,0.5]];portConstraint=eastwest;top=0;left=0;right=0;bottom=0;" vertex="1" parent="nB46SJz7qmsPy6LxUtB7-51">
          <mxGeometry y="80" width="250" height="80" as="geometry" />
        </mxCell>
        <mxCell id="nB46SJz7qmsPy6LxUtB7-59" value="" style="shape=partialRectangle;overflow=hidden;connectable=0;fillColor=none;top=0;left=0;bottom=0;right=0;" vertex="1" parent="nB46SJz7qmsPy6LxUtB7-58">
          <mxGeometry width="30" height="80" as="geometry">
            <mxRectangle width="30" height="80" as="alternateBounds" />
          </mxGeometry>
        </mxCell>
        <mxCell id="nB46SJz7qmsPy6LxUtB7-60" value="branch_name&#xa;branch_code&#xa;address&#xa;phone_number" style="shape=partialRectangle;overflow=hidden;connectable=0;fillColor=none;top=0;left=0;bottom=0;right=0;align=left;spacingLeft=6;fontSize=13;" vertex="1" parent="nB46SJz7qmsPy6LxUtB7-58">
          <mxGeometry x="30" width="220" height="80" as="geometry">
            <mxRectangle width="220" height="80" as="alternateBounds" />
          </mxGeometry>
        </mxCell>
        <mxCell id="nB46SJz7qmsPy6LxUtB7-61" value="CUSTOMER" style="shape=table;startSize=20;container=1;collapsible=1;childLayout=tableLayout;fixedRows=1;rowLines=0;fontStyle=1;align=center;resizeLast=1;" vertex="1" parent="1">
          <mxGeometry x="620" y="-280" width="250" height="240" as="geometry" />
        </mxCell>
        <mxCell id="nB46SJz7qmsPy6LxUtB7-62" value="" style="shape=partialRectangle;collapsible=0;dropTarget=0;pointerEvents=0;fillColor=none;points=[[0,0.5],[1,0.5]];portConstraint=eastwest;top=0;left=0;right=0;bottom=1;" vertex="1" parent="nB46SJz7qmsPy6LxUtB7-61">
          <mxGeometry y="20" width="250" height="30" as="geometry" />
        </mxCell>
        <mxCell id="nB46SJz7qmsPy6LxUtB7-63" value="PK" style="shape=partialRectangle;overflow=hidden;connectable=0;fillColor=none;top=0;left=0;bottom=0;right=0;fontStyle=1;" vertex="1" parent="nB46SJz7qmsPy6LxUtB7-62">
          <mxGeometry width="30" height="30" as="geometry">
            <mxRectangle width="30" height="30" as="alternateBounds" />
          </mxGeometry>
        </mxCell>
        <mxCell id="nB46SJz7qmsPy6LxUtB7-64" value="customer_id" style="shape=partialRectangle;overflow=hidden;connectable=0;fillColor=none;top=0;left=0;bottom=0;right=0;align=left;spacingLeft=6;fontStyle=5;" vertex="1" parent="nB46SJz7qmsPy6LxUtB7-62">
          <mxGeometry x="30" width="220" height="30" as="geometry">
            <mxRectangle width="220" height="30" as="alternateBounds" />
          </mxGeometry>
        </mxCell>
        <mxCell id="nB46SJz7qmsPy6LxUtB7-65" value="" style="shape=partialRectangle;collapsible=0;dropTarget=0;pointerEvents=0;fillColor=none;points=[[0,0.5],[1,0.5]];portConstraint=eastwest;top=0;left=0;right=0;bottom=0;" vertex="1" parent="nB46SJz7qmsPy6LxUtB7-61">
          <mxGeometry y="50" width="250" height="30" as="geometry" />
        </mxCell>
        <mxCell id="nB46SJz7qmsPy6LxUtB7-66" value="FK1" style="shape=partialRectangle;overflow=hidden;connectable=0;fillColor=none;top=0;left=0;bottom=0;right=0;" vertex="1" parent="nB46SJz7qmsPy6LxUtB7-65">
          <mxGeometry width="30" height="30" as="geometry">
            <mxRectangle width="30" height="30" as="alternateBounds" />
          </mxGeometry>
        </mxCell>
        <mxCell id="nB46SJz7qmsPy6LxUtB7-67" value="branch_id" style="shape=partialRectangle;overflow=hidden;connectable=0;fillColor=none;top=0;left=0;bottom=0;right=0;align=left;spacingLeft=6;" vertex="1" parent="nB46SJz7qmsPy6LxUtB7-65">
          <mxGeometry x="30" width="220" height="30" as="geometry">
            <mxRectangle width="220" height="30" as="alternateBounds" />
          </mxGeometry>
        </mxCell>
        <mxCell id="nB46SJz7qmsPy6LxUtB7-68" value="" style="shape=partialRectangle;collapsible=0;dropTarget=0;pointerEvents=0;fillColor=none;points=[[0,0.5],[1,0.5]];portConstraint=eastwest;top=0;left=0;right=0;bottom=0;" vertex="1" parent="nB46SJz7qmsPy6LxUtB7-61">
          <mxGeometry y="80" width="250" height="160" as="geometry" />
        </mxCell>
        <mxCell id="nB46SJz7qmsPy6LxUtB7-69" value="" style="shape=partialRectangle;overflow=hidden;connectable=0;fillColor=none;top=0;left=0;bottom=0;right=0;" vertex="1" parent="nB46SJz7qmsPy6LxUtB7-68">
          <mxGeometry width="30" height="160" as="geometry">
            <mxRectangle width="30" height="160" as="alternateBounds" />
          </mxGeometry>
        </mxCell>
        <mxCell id="nB46SJz7qmsPy6LxUtB7-70" value="first_name&#xa;last_name&#xa;date_of_birth&#xa;address_line_1&#xa;address_line_2&#xa;pincode&#xa;email&#xa;phone_number&#xa;ssn&#xa;customer_type" style="shape=partialRectangle;overflow=hidden;connectable=0;fillColor=none;top=0;left=0;bottom=0;right=0;align=left;spacingLeft=6;fontSize=13;" vertex="1" parent="nB46SJz7qmsPy6LxUtB7-68">
          <mxGeometry x="30" width="220" height="160" as="geometry">
            <mxRectangle width="220" height="160" as="alternateBounds" />
          </mxGeometry>
        </mxCell>
        <mxCell id="nB46SJz7qmsPy6LxUtB7-71" value="CREDIT CARD" style="shape=table;startSize=20;container=1;collapsible=1;childLayout=tableLayout;fixedRows=1;rowLines=0;fontStyle=1;align=center;resizeLast=1;" vertex="1" parent="1">
          <mxGeometry x="970" y="-520" width="250" height="140" as="geometry" />
        </mxCell>
        <mxCell id="nB46SJz7qmsPy6LxUtB7-72" value="" style="shape=partialRectangle;collapsible=0;dropTarget=0;pointerEvents=0;fillColor=none;points=[[0,0.5],[1,0.5]];portConstraint=eastwest;top=0;left=0;right=0;bottom=1;" vertex="1" parent="nB46SJz7qmsPy6LxUtB7-71">
          <mxGeometry y="20" width="250" height="30" as="geometry" />
        </mxCell>
        <mxCell id="nB46SJz7qmsPy6LxUtB7-73" value="PK, FK1" style="shape=partialRectangle;overflow=hidden;connectable=0;fillColor=none;top=0;left=0;bottom=0;right=0;fontStyle=1;" vertex="1" parent="nB46SJz7qmsPy6LxUtB7-72">
          <mxGeometry width="50" height="30" as="geometry">
            <mxRectangle width="50" height="30" as="alternateBounds" />
          </mxGeometry>
        </mxCell>
        <mxCell id="nB46SJz7qmsPy6LxUtB7-74" value="card_instrument_id" style="shape=partialRectangle;overflow=hidden;connectable=0;fillColor=none;top=0;left=0;bottom=0;right=0;align=left;spacingLeft=6;fontStyle=5;" vertex="1" parent="nB46SJz7qmsPy6LxUtB7-72">
          <mxGeometry x="50" width="200" height="30" as="geometry">
            <mxRectangle width="200" height="30" as="alternateBounds" />
          </mxGeometry>
        </mxCell>
        <mxCell id="nB46SJz7qmsPy6LxUtB7-78" value="" style="shape=partialRectangle;collapsible=0;dropTarget=0;pointerEvents=0;fillColor=none;points=[[0,0.5],[1,0.5]];portConstraint=eastwest;top=0;left=0;right=0;bottom=0;" vertex="1" parent="nB46SJz7qmsPy6LxUtB7-71">
          <mxGeometry y="50" width="250" height="80" as="geometry" />
        </mxCell>
        <mxCell id="nB46SJz7qmsPy6LxUtB7-79" value="" style="shape=partialRectangle;overflow=hidden;connectable=0;fillColor=none;top=0;left=0;bottom=0;right=0;" vertex="1" parent="nB46SJz7qmsPy6LxUtB7-78">
          <mxGeometry width="50" height="80" as="geometry">
            <mxRectangle width="50" height="80" as="alternateBounds" />
          </mxGeometry>
        </mxCell>
        <mxCell id="nB46SJz7qmsPy6LxUtB7-80" value="card_number&#xa;card_type&#xa;expiration_date&#xa;credit_limit&#xa;current_balance" style="shape=partialRectangle;overflow=hidden;connectable=0;fillColor=none;top=0;left=0;bottom=0;right=0;align=left;spacingLeft=6;fontSize=13;" vertex="1" parent="nB46SJz7qmsPy6LxUtB7-78">
          <mxGeometry x="50" width="200" height="80" as="geometry">
            <mxRectangle width="200" height="80" as="alternateBounds" />
          </mxGeometry>
        </mxCell>
        <mxCell id="nB46SJz7qmsPy6LxUtB7-91" value="ACCOUNT" style="shape=table;startSize=20;container=1;collapsible=1;childLayout=tableLayout;fixedRows=1;rowLines=0;fontStyle=1;align=center;resizeLast=1;" vertex="1" parent="1">
          <mxGeometry x="1180" y="-180" width="250" height="210" as="geometry" />
        </mxCell>
        <mxCell id="nB46SJz7qmsPy6LxUtB7-92" value="" style="shape=partialRectangle;collapsible=0;dropTarget=0;pointerEvents=0;fillColor=none;points=[[0,0.5],[1,0.5]];portConstraint=eastwest;top=0;left=0;right=0;bottom=1;" vertex="1" parent="nB46SJz7qmsPy6LxUtB7-91">
          <mxGeometry y="20" width="250" height="30" as="geometry" />
        </mxCell>
        <mxCell id="nB46SJz7qmsPy6LxUtB7-93" value="PK, FK1" style="shape=partialRectangle;overflow=hidden;connectable=0;fillColor=none;top=0;left=0;bottom=0;right=0;fontStyle=1;" vertex="1" parent="nB46SJz7qmsPy6LxUtB7-92">
          <mxGeometry width="50" height="30" as="geometry">
            <mxRectangle width="50" height="30" as="alternateBounds" />
          </mxGeometry>
        </mxCell>
        <mxCell id="nB46SJz7qmsPy6LxUtB7-94" value="account_instrument_id" style="shape=partialRectangle;overflow=hidden;connectable=0;fillColor=none;top=0;left=0;bottom=0;right=0;align=left;spacingLeft=6;fontStyle=5;" vertex="1" parent="nB46SJz7qmsPy6LxUtB7-92">
          <mxGeometry x="50" width="200" height="30" as="geometry">
            <mxRectangle width="200" height="30" as="alternateBounds" />
          </mxGeometry>
        </mxCell>
        <mxCell id="nB46SJz7qmsPy6LxUtB7-98" value="" style="shape=partialRectangle;collapsible=0;dropTarget=0;pointerEvents=0;fillColor=none;points=[[0,0.5],[1,0.5]];portConstraint=eastwest;top=0;left=0;right=0;bottom=0;" vertex="1" parent="nB46SJz7qmsPy6LxUtB7-91">
          <mxGeometry y="50" width="250" height="160" as="geometry" />
        </mxCell>
        <mxCell id="nB46SJz7qmsPy6LxUtB7-99" value="" style="shape=partialRectangle;overflow=hidden;connectable=0;fillColor=none;top=0;left=0;bottom=0;right=0;" vertex="1" parent="nB46SJz7qmsPy6LxUtB7-98">
          <mxGeometry width="50" height="160" as="geometry">
            <mxRectangle width="50" height="160" as="alternateBounds" />
          </mxGeometry>
        </mxCell>
        <mxCell id="nB46SJz7qmsPy6LxUtB7-100" value="account_number&#xa;date_added&#xa;balance&#xa;opening_date&#xa;account_type&#xa;interest_rate" style="shape=partialRectangle;overflow=hidden;connectable=0;fillColor=none;top=0;left=0;bottom=0;right=0;align=left;spacingLeft=6;fontSize=13;" vertex="1" parent="nB46SJz7qmsPy6LxUtB7-98">
          <mxGeometry x="50" width="200" height="160" as="geometry">
            <mxRectangle width="200" height="160" as="alternateBounds" />
          </mxGeometry>
        </mxCell>
        <mxCell id="nB46SJz7qmsPy6LxUtB7-101" value="LOAN" style="shape=table;startSize=20;container=1;collapsible=1;childLayout=tableLayout;fixedRows=1;rowLines=0;fontStyle=1;align=center;resizeLast=1;" vertex="1" parent="1">
          <mxGeometry x="1300" y="223" width="250" height="210" as="geometry" />
        </mxCell>
        <mxCell id="nB46SJz7qmsPy6LxUtB7-102" value="" style="shape=partialRectangle;collapsible=0;dropTarget=0;pointerEvents=0;fillColor=none;points=[[0,0.5],[1,0.5]];portConstraint=eastwest;top=0;left=0;right=0;bottom=1;" vertex="1" parent="nB46SJz7qmsPy6LxUtB7-101">
          <mxGeometry y="20" width="250" height="30" as="geometry" />
        </mxCell>
        <mxCell id="nB46SJz7qmsPy6LxUtB7-103" value="PK, FK1" style="shape=partialRectangle;overflow=hidden;connectable=0;fillColor=none;top=0;left=0;bottom=0;right=0;fontStyle=1;" vertex="1" parent="nB46SJz7qmsPy6LxUtB7-102">
          <mxGeometry width="60" height="30" as="geometry">
            <mxRectangle width="60" height="30" as="alternateBounds" />
          </mxGeometry>
        </mxCell>
        <mxCell id="nB46SJz7qmsPy6LxUtB7-104" value="loan_id" style="shape=partialRectangle;overflow=hidden;connectable=0;fillColor=none;top=0;left=0;bottom=0;right=0;align=left;spacingLeft=6;fontStyle=5;" vertex="1" parent="nB46SJz7qmsPy6LxUtB7-102">
          <mxGeometry x="60" width="190" height="30" as="geometry">
            <mxRectangle width="190" height="30" as="alternateBounds" />
          </mxGeometry>
        </mxCell>
        <mxCell id="nB46SJz7qmsPy6LxUtB7-105" value="" style="shape=partialRectangle;collapsible=0;dropTarget=0;pointerEvents=0;fillColor=none;points=[[0,0.5],[1,0.5]];portConstraint=eastwest;top=0;left=0;right=0;bottom=0;" vertex="1" parent="nB46SJz7qmsPy6LxUtB7-101">
          <mxGeometry y="50" width="250" height="30" as="geometry" />
        </mxCell>
        <mxCell id="nB46SJz7qmsPy6LxUtB7-106" value="FK2" style="shape=partialRectangle;overflow=hidden;connectable=0;fillColor=none;top=0;left=0;bottom=0;right=0;" vertex="1" parent="nB46SJz7qmsPy6LxUtB7-105">
          <mxGeometry width="60" height="30" as="geometry">
            <mxRectangle width="60" height="30" as="alternateBounds" />
          </mxGeometry>
        </mxCell>
        <mxCell id="nB46SJz7qmsPy6LxUtB7-107" value="customer_id" style="shape=partialRectangle;overflow=hidden;connectable=0;fillColor=none;top=0;left=0;bottom=0;right=0;align=left;spacingLeft=6;" vertex="1" parent="nB46SJz7qmsPy6LxUtB7-105">
          <mxGeometry x="60" width="190" height="30" as="geometry">
            <mxRectangle width="190" height="30" as="alternateBounds" />
          </mxGeometry>
        </mxCell>
        <mxCell id="nB46SJz7qmsPy6LxUtB7-108" value="" style="shape=partialRectangle;collapsible=0;dropTarget=0;pointerEvents=0;fillColor=none;points=[[0,0.5],[1,0.5]];portConstraint=eastwest;top=0;left=0;right=0;bottom=0;" vertex="1" parent="nB46SJz7qmsPy6LxUtB7-101">
          <mxGeometry y="80" width="250" height="130" as="geometry" />
        </mxCell>
        <mxCell id="nB46SJz7qmsPy6LxUtB7-109" value="" style="shape=partialRectangle;overflow=hidden;connectable=0;fillColor=none;top=0;left=0;bottom=0;right=0;" vertex="1" parent="nB46SJz7qmsPy6LxUtB7-108">
          <mxGeometry width="60" height="130" as="geometry">
            <mxRectangle width="60" height="130" as="alternateBounds" />
          </mxGeometry>
        </mxCell>
        <mxCell id="nB46SJz7qmsPy6LxUtB7-110" value="loan_type&#xa;loan_amount&#xa;interest_rate&#xa;term&#xa;start_date&#xa;end_date&#xa;status" style="shape=partialRectangle;overflow=hidden;connectable=0;fillColor=none;top=0;left=0;bottom=0;right=0;align=left;spacingLeft=6;fontSize=13;" vertex="1" parent="nB46SJz7qmsPy6LxUtB7-108">
          <mxGeometry x="60" width="190" height="130" as="geometry">
            <mxRectangle width="190" height="130" as="alternateBounds" />
          </mxGeometry>
        </mxCell>
        <mxCell id="nB46SJz7qmsPy6LxUtB7-111" value="EMPLOYEE" style="shape=table;startSize=20;container=1;collapsible=1;childLayout=tableLayout;fixedRows=1;rowLines=0;fontStyle=1;align=center;resizeLast=1;" vertex="1" parent="1">
          <mxGeometry x="1010" y="430" width="250" height="210" as="geometry" />
        </mxCell>
        <mxCell id="nB46SJz7qmsPy6LxUtB7-112" value="" style="shape=partialRectangle;collapsible=0;dropTarget=0;pointerEvents=0;fillColor=none;points=[[0,0.5],[1,0.5]];portConstraint=eastwest;top=0;left=0;right=0;bottom=1;" vertex="1" parent="nB46SJz7qmsPy6LxUtB7-111">
          <mxGeometry y="20" width="250" height="30" as="geometry" />
        </mxCell>
        <mxCell id="nB46SJz7qmsPy6LxUtB7-113" value="PK" style="shape=partialRectangle;overflow=hidden;connectable=0;fillColor=none;top=0;left=0;bottom=0;right=0;fontStyle=1;" vertex="1" parent="nB46SJz7qmsPy6LxUtB7-112">
          <mxGeometry width="30" height="30" as="geometry">
            <mxRectangle width="30" height="30" as="alternateBounds" />
          </mxGeometry>
        </mxCell>
        <mxCell id="nB46SJz7qmsPy6LxUtB7-114" value="employee_id" style="shape=partialRectangle;overflow=hidden;connectable=0;fillColor=none;top=0;left=0;bottom=0;right=0;align=left;spacingLeft=6;fontStyle=5;" vertex="1" parent="nB46SJz7qmsPy6LxUtB7-112">
          <mxGeometry x="30" width="220" height="30" as="geometry">
            <mxRectangle width="220" height="30" as="alternateBounds" />
          </mxGeometry>
        </mxCell>
        <mxCell id="nB46SJz7qmsPy6LxUtB7-115" value="" style="shape=partialRectangle;collapsible=0;dropTarget=0;pointerEvents=0;fillColor=none;points=[[0,0.5],[1,0.5]];portConstraint=eastwest;top=0;left=0;right=0;bottom=0;" vertex="1" parent="nB46SJz7qmsPy6LxUtB7-111">
          <mxGeometry y="50" width="250" height="30" as="geometry" />
        </mxCell>
        <mxCell id="nB46SJz7qmsPy6LxUtB7-116" value="FK1" style="shape=partialRectangle;overflow=hidden;connectable=0;fillColor=none;top=0;left=0;bottom=0;right=0;" vertex="1" parent="nB46SJz7qmsPy6LxUtB7-115">
          <mxGeometry width="30" height="30" as="geometry">
            <mxRectangle width="30" height="30" as="alternateBounds" />
          </mxGeometry>
        </mxCell>
        <mxCell id="nB46SJz7qmsPy6LxUtB7-117" value="branch_id" style="shape=partialRectangle;overflow=hidden;connectable=0;fillColor=none;top=0;left=0;bottom=0;right=0;align=left;spacingLeft=6;" vertex="1" parent="nB46SJz7qmsPy6LxUtB7-115">
          <mxGeometry x="30" width="220" height="30" as="geometry">
            <mxRectangle width="220" height="30" as="alternateBounds" />
          </mxGeometry>
        </mxCell>
        <mxCell id="nB46SJz7qmsPy6LxUtB7-118" value="" style="shape=partialRectangle;collapsible=0;dropTarget=0;pointerEvents=0;fillColor=none;points=[[0,0.5],[1,0.5]];portConstraint=eastwest;top=0;left=0;right=0;bottom=0;" vertex="1" parent="nB46SJz7qmsPy6LxUtB7-111">
          <mxGeometry y="80" width="250" height="130" as="geometry" />
        </mxCell>
        <mxCell id="nB46SJz7qmsPy6LxUtB7-119" value="" style="shape=partialRectangle;overflow=hidden;connectable=0;fillColor=none;top=0;left=0;bottom=0;right=0;" vertex="1" parent="nB46SJz7qmsPy6LxUtB7-118">
          <mxGeometry width="30" height="130" as="geometry">
            <mxRectangle width="30" height="130" as="alternateBounds" />
          </mxGeometry>
        </mxCell>
        <mxCell id="nB46SJz7qmsPy6LxUtB7-120" value="first_name&#xa;last_name&#xa;position&#xa;hire_date&#xa;salary&#xa;contact_information" style="shape=partialRectangle;overflow=hidden;connectable=0;fillColor=none;top=0;left=0;bottom=0;right=0;align=left;spacingLeft=6;fontSize=13;" vertex="1" parent="nB46SJz7qmsPy6LxUtB7-118">
          <mxGeometry x="30" width="220" height="130" as="geometry">
            <mxRectangle width="220" height="130" as="alternateBounds" />
          </mxGeometry>
        </mxCell>
        <mxCell id="nB46SJz7qmsPy6LxUtB7-141" value="TRANSACTION" style="shape=table;startSize=20;container=1;collapsible=1;childLayout=tableLayout;fixedRows=1;rowLines=0;fontStyle=1;align=center;resizeLast=1;" vertex="1" parent="1">
          <mxGeometry x="1550" y="-130" width="250" height="190" as="geometry" />
        </mxCell>
        <mxCell id="nB46SJz7qmsPy6LxUtB7-142" value="" style="shape=partialRectangle;collapsible=0;dropTarget=0;pointerEvents=0;fillColor=none;points=[[0,0.5],[1,0.5]];portConstraint=eastwest;top=0;left=0;right=0;bottom=1;" vertex="1" parent="nB46SJz7qmsPy6LxUtB7-141">
          <mxGeometry y="20" width="250" height="30" as="geometry" />
        </mxCell>
        <mxCell id="nB46SJz7qmsPy6LxUtB7-143" value="PK" style="shape=partialRectangle;overflow=hidden;connectable=0;fillColor=none;top=0;left=0;bottom=0;right=0;fontStyle=1;" vertex="1" parent="nB46SJz7qmsPy6LxUtB7-142">
          <mxGeometry width="50" height="30" as="geometry">
            <mxRectangle width="50" height="30" as="alternateBounds" />
          </mxGeometry>
        </mxCell>
        <mxCell id="nB46SJz7qmsPy6LxUtB7-144" value="transaction_id" style="shape=partialRectangle;overflow=hidden;connectable=0;fillColor=none;top=0;left=0;bottom=0;right=0;align=left;spacingLeft=6;fontStyle=5;" vertex="1" parent="nB46SJz7qmsPy6LxUtB7-142">
          <mxGeometry x="50" width="200" height="30" as="geometry">
            <mxRectangle width="200" height="30" as="alternateBounds" />
          </mxGeometry>
        </mxCell>
        <mxCell id="nB46SJz7qmsPy6LxUtB7-145" value="" style="shape=partialRectangle;collapsible=0;dropTarget=0;pointerEvents=0;fillColor=none;points=[[0,0.5],[1,0.5]];portConstraint=eastwest;top=0;left=0;right=0;bottom=0;" vertex="1" parent="nB46SJz7qmsPy6LxUtB7-141">
          <mxGeometry y="50" width="250" height="30" as="geometry" />
        </mxCell>
        <mxCell id="nB46SJz7qmsPy6LxUtB7-146" value="PK, FK1" style="shape=partialRectangle;overflow=hidden;connectable=0;fillColor=none;top=0;left=0;bottom=0;right=0;fontStyle=1" vertex="1" parent="nB46SJz7qmsPy6LxUtB7-145">
          <mxGeometry width="50" height="30" as="geometry">
            <mxRectangle width="50" height="30" as="alternateBounds" />
          </mxGeometry>
        </mxCell>
        <mxCell id="nB46SJz7qmsPy6LxUtB7-147" value="instrument_id" style="shape=partialRectangle;overflow=hidden;connectable=0;fillColor=none;top=0;left=0;bottom=0;right=0;align=left;spacingLeft=6;fontStyle=5" vertex="1" parent="nB46SJz7qmsPy6LxUtB7-145">
          <mxGeometry x="50" width="200" height="30" as="geometry">
            <mxRectangle width="200" height="30" as="alternateBounds" />
          </mxGeometry>
        </mxCell>
        <mxCell id="nB46SJz7qmsPy6LxUtB7-148" value="" style="shape=partialRectangle;collapsible=0;dropTarget=0;pointerEvents=0;fillColor=none;points=[[0,0.5],[1,0.5]];portConstraint=eastwest;top=0;left=0;right=0;bottom=0;" vertex="1" parent="nB46SJz7qmsPy6LxUtB7-141">
          <mxGeometry y="80" width="250" height="110" as="geometry" />
        </mxCell>
        <mxCell id="nB46SJz7qmsPy6LxUtB7-149" value="" style="shape=partialRectangle;overflow=hidden;connectable=0;fillColor=none;top=0;left=0;bottom=0;right=0;" vertex="1" parent="nB46SJz7qmsPy6LxUtB7-148">
          <mxGeometry width="50" height="110" as="geometry">
            <mxRectangle width="50" height="110" as="alternateBounds" />
          </mxGeometry>
        </mxCell>
        <mxCell id="nB46SJz7qmsPy6LxUtB7-150" value="transaction_type&#xa;amount&#xa;date_time&#xa;description&#xa;status" style="shape=partialRectangle;overflow=hidden;connectable=0;fillColor=none;top=0;left=0;bottom=0;right=0;align=left;spacingLeft=6;fontSize=13;" vertex="1" parent="nB46SJz7qmsPy6LxUtB7-148">
          <mxGeometry x="50" width="200" height="110" as="geometry">
            <mxRectangle width="200" height="110" as="alternateBounds" />
          </mxGeometry>
        </mxCell>
        <mxCell id="nB46SJz7qmsPy6LxUtB7-151" value="" style="endArrow=ERzeroToMany;html=1;rounded=0;exitX=0;exitY=0.5;exitDx=0;exitDy=0;startArrow=ERmandOne;startFill=0;endFill=0;" edge="1" parent="1" source="nB46SJz7qmsPy6LxUtB7-62">
          <mxGeometry width="50" height="50" relative="1" as="geometry">
            <mxPoint x="500" y="-230" as="sourcePoint" />
            <mxPoint x="421" y="-380" as="targetPoint" />
            <Array as="points">
              <mxPoint x="420" y="-245" />
            </Array>
          </mxGeometry>
        </mxCell>
        <mxCell id="nB46SJz7qmsPy6LxUtB7-152" value="invests in" style="text;html=1;align=center;verticalAlign=middle;resizable=0;points=[];autosize=1;strokeColor=none;fillColor=none;" vertex="1" parent="1">
          <mxGeometry x="555" y="-272" width="70" height="30" as="geometry" />
        </mxCell>
        <mxCell id="nB46SJz7qmsPy6LxUtB7-153" value="managed for" style="text;html=1;align=center;verticalAlign=middle;resizable=0;points=[];autosize=1;strokeColor=none;fillColor=none;" vertex="1" parent="1">
          <mxGeometry x="420" y="-380" width="90" height="30" as="geometry" />
        </mxCell>
        <mxCell id="nB46SJz7qmsPy6LxUtB7-154" value="" style="endArrow=ERmandOne;html=1;rounded=0;exitX=1;exitY=0.5;exitDx=0;exitDy=0;entryX=-0.004;entryY=0.315;entryDx=0;entryDy=0;entryPerimeter=0;endFill=0;startArrow=ERzeroToMany;startFill=0;" edge="1" parent="1" source="nB46SJz7qmsPy6LxUtB7-8" target="nB46SJz7qmsPy6LxUtB7-68">
          <mxGeometry width="50" height="50" relative="1" as="geometry">
            <mxPoint x="460" y="-150" as="sourcePoint" />
            <mxPoint x="510" y="-200" as="targetPoint" />
          </mxGeometry>
        </mxCell>
        <mxCell id="nB46SJz7qmsPy6LxUtB7-155" value="used by" style="text;html=1;align=center;verticalAlign=middle;resizable=0;points=[];autosize=1;strokeColor=none;fillColor=none;" vertex="1" parent="1">
          <mxGeometry x="340" y="-180" width="70" height="30" as="geometry" />
        </mxCell>
        <mxCell id="nB46SJz7qmsPy6LxUtB7-156" value="uses" style="text;html=1;align=center;verticalAlign=middle;resizable=0;points=[];autosize=1;strokeColor=none;fillColor=none;" vertex="1" parent="1">
          <mxGeometry x="575" y="-192" width="50" height="30" as="geometry" />
        </mxCell>
        <mxCell id="nB46SJz7qmsPy6LxUtB7-157" value="" style="endArrow=ERmandOne;html=1;rounded=0;exitX=1;exitY=0.164;exitDx=0;exitDy=0;exitPerimeter=0;startArrow=ERzeroToMany;startFill=0;endFill=0;" edge="1" parent="1" source="nB46SJz7qmsPy6LxUtB7-11">
          <mxGeometry width="50" height="50" relative="1" as="geometry">
            <mxPoint x="370" y="-40" as="sourcePoint" />
            <mxPoint x="620" y="-101" as="targetPoint" />
            <Array as="points">
              <mxPoint x="420" y="-27" />
              <mxPoint x="420" y="-101" />
            </Array>
          </mxGeometry>
        </mxCell>
        <mxCell id="nB46SJz7qmsPy6LxUtB7-158" value="has" style="text;html=1;align=center;verticalAlign=middle;resizable=0;points=[];autosize=1;strokeColor=none;fillColor=none;" vertex="1" parent="1">
          <mxGeometry x="580" y="-122" width="40" height="30" as="geometry" />
        </mxCell>
        <mxCell id="nB46SJz7qmsPy6LxUtB7-159" value="associated with" style="text;html=1;align=center;verticalAlign=middle;resizable=0;points=[];autosize=1;strokeColor=none;fillColor=none;" vertex="1" parent="1">
          <mxGeometry x="370" y="-20" width="110" height="30" as="geometry" />
        </mxCell>
        <mxCell id="nB46SJz7qmsPy6LxUtB7-163" value="" style="endArrow=ERzeroToMany;html=1;rounded=0;exitX=0.392;exitY=0.006;exitDx=0;exitDy=0;exitPerimeter=0;endFill=0;startArrow=ERmandOne;startFill=0;" edge="1" parent="1" source="nB46SJz7qmsPy6LxUtB7-51">
          <mxGeometry width="50" height="50" relative="1" as="geometry">
            <mxPoint x="690" y="30" as="sourcePoint" />
            <mxPoint x="720" y="-40" as="targetPoint" />
          </mxGeometry>
        </mxCell>
        <mxCell id="nB46SJz7qmsPy6LxUtB7-164" value="serves" style="text;html=1;align=center;verticalAlign=middle;resizable=0;points=[];autosize=1;strokeColor=none;fillColor=none;" vertex="1" parent="1">
          <mxGeometry x="660" y="120" width="60" height="30" as="geometry" />
        </mxCell>
        <mxCell id="nB46SJz7qmsPy6LxUtB7-165" value="served by" style="text;html=1;align=center;verticalAlign=middle;resizable=0;points=[];autosize=1;strokeColor=none;fillColor=none;" vertex="1" parent="1">
          <mxGeometry x="720" y="-40" width="80" height="30" as="geometry" />
        </mxCell>
        <mxCell id="nB46SJz7qmsPy6LxUtB7-169" value="" style="endArrow=ERmandOne;html=1;rounded=0;exitX=0;exitY=0.5;exitDx=0;exitDy=0;startArrow=ERzeroToMany;startFill=0;endFill=0;" edge="1" parent="1" source="nB46SJz7qmsPy6LxUtB7-115">
          <mxGeometry width="50" height="50" relative="1" as="geometry">
            <mxPoint x="800" y="440" as="sourcePoint" />
            <mxPoint x="800" y="320" as="targetPoint" />
            <Array as="points">
              <mxPoint x="800" y="495" />
            </Array>
          </mxGeometry>
        </mxCell>
        <mxCell id="nB46SJz7qmsPy6LxUtB7-170" value="employs" style="text;html=1;align=center;verticalAlign=middle;resizable=0;points=[];autosize=1;strokeColor=none;fillColor=none;" vertex="1" parent="1">
          <mxGeometry x="795" y="320" width="70" height="30" as="geometry" />
        </mxCell>
        <mxCell id="nB46SJz7qmsPy6LxUtB7-171" value="works at" style="text;html=1;align=center;verticalAlign=middle;resizable=0;points=[];autosize=1;strokeColor=none;fillColor=none;" vertex="1" parent="1">
          <mxGeometry x="940" y="470" width="70" height="30" as="geometry" />
        </mxCell>
        <mxCell id="nB46SJz7qmsPy6LxUtB7-175" value="" style="endArrow=ERmandOne;html=1;rounded=0;exitX=0.75;exitY=0;exitDx=0;exitDy=0;endFill=0;startArrow=ERzeroToOne;startFill=0;" edge="1" parent="1" source="nB46SJz7qmsPy6LxUtB7-101">
          <mxGeometry width="50" height="50" relative="1" as="geometry">
            <mxPoint x="1310" y="240" as="sourcePoint" />
            <mxPoint x="1500" y="-320" as="targetPoint" />
            <Array as="points" />
          </mxGeometry>
        </mxCell>
        <mxCell id="nB46SJz7qmsPy6LxUtB7-177" value="associated with" style="text;html=1;align=center;verticalAlign=middle;resizable=0;points=[];autosize=1;strokeColor=none;fillColor=none;" vertex="1" parent="1">
          <mxGeometry x="1510" y="60" width="110" height="30" as="geometry" />
        </mxCell>
        <mxCell id="nB46SJz7qmsPy6LxUtB7-178" value="" style="endArrow=ERmandOne;html=1;rounded=0;startArrow=ERzeroToOne;startFill=0;endFill=0;exitX=1;exitY=0.5;exitDx=0;exitDy=0;entryX=0.25;entryY=1;entryDx=0;entryDy=0;" edge="1" parent="1" target="a7ZM1lEsg8ICDF3q9rtQ-1">
          <mxGeometry width="50" height="50" relative="1" as="geometry">
            <mxPoint x="1430" y="-67" as="sourcePoint" />
            <mxPoint x="1550" y="-68" as="targetPoint" />
            <Array as="points">
              <mxPoint x="1460" y="-67" />
            </Array>
          </mxGeometry>
        </mxCell>
        <mxCell id="nB46SJz7qmsPy6LxUtB7-179" value="type of" style="text;html=1;align=center;verticalAlign=middle;resizable=0;points=[];autosize=1;strokeColor=none;fillColor=none;" vertex="1" parent="1">
          <mxGeometry x="1430" y="-70" width="60" height="30" as="geometry" />
        </mxCell>
        <mxCell id="nB46SJz7qmsPy6LxUtB7-183" value="belongs to" style="text;html=1;align=center;verticalAlign=middle;resizable=0;points=[];autosize=1;strokeColor=none;fillColor=none;" vertex="1" parent="1">
          <mxGeometry x="1320" y="-370" width="80" height="30" as="geometry" />
        </mxCell>
        <mxCell id="nB46SJz7qmsPy6LxUtB7-187" value="" style="endArrow=ERmandOne;html=1;rounded=0;exitX=1;exitY=0.5;exitDx=0;exitDy=0;entryX=0.25;entryY=0;entryDx=0;entryDy=0;endFill=0;startArrow=ERzeroToOne;startFill=0;" edge="1" parent="1" source="nB46SJz7qmsPy6LxUtB7-72" target="a7ZM1lEsg8ICDF3q9rtQ-1">
          <mxGeometry width="50" height="50" relative="1" as="geometry">
            <mxPoint x="1380" y="-460" as="sourcePoint" />
            <mxPoint x="1430" y="-510" as="targetPoint" />
            <Array as="points">
              <mxPoint x="1463" y="-485" />
            </Array>
          </mxGeometry>
        </mxCell>
        <mxCell id="nB46SJz7qmsPy6LxUtB7-188" value="type of" style="text;html=1;align=center;verticalAlign=middle;resizable=0;points=[];autosize=1;strokeColor=none;fillColor=none;" vertex="1" parent="1">
          <mxGeometry x="1220" y="-510" width="60" height="30" as="geometry" />
        </mxCell>
        <mxCell id="nB46SJz7qmsPy6LxUtB7-189" value="asociated with" style="text;html=1;align=center;verticalAlign=middle;resizable=0;points=[];autosize=1;strokeColor=none;fillColor=none;" vertex="1" parent="1">
          <mxGeometry x="1580" y="-160" width="100" height="30" as="geometry" />
        </mxCell>
        <mxCell id="nB46SJz7qmsPy6LxUtB7-196" value="" style="endArrow=ERzeroToMany;html=1;rounded=0;endFill=0;startArrow=ERmandOne;startFill=0;entryX=0.25;entryY=1;entryDx=0;entryDy=0;" edge="1" parent="1" target="nB46SJz7qmsPy6LxUtB7-91">
          <mxGeometry width="50" height="50" relative="1" as="geometry">
            <mxPoint x="824" y="150" as="sourcePoint" />
            <mxPoint x="1220" y="70" as="targetPoint" />
            <Array as="points">
              <mxPoint x="824" y="90" />
              <mxPoint x="1240" y="90" />
            </Array>
          </mxGeometry>
        </mxCell>
        <mxCell id="nB46SJz7qmsPy6LxUtB7-197" value="maintains" style="text;html=1;align=center;verticalAlign=middle;resizable=0;points=[];autosize=1;strokeColor=none;fillColor=none;" vertex="1" parent="1">
          <mxGeometry x="820" y="120" width="70" height="30" as="geometry" />
        </mxCell>
        <mxCell id="nB46SJz7qmsPy6LxUtB7-198" value="belongs to" style="text;html=1;align=center;verticalAlign=middle;resizable=0;points=[];autosize=1;strokeColor=none;fillColor=none;" vertex="1" parent="1">
          <mxGeometry x="1240" y="40" width="80" height="30" as="geometry" />
        </mxCell>
        <mxCell id="nB46SJz7qmsPy6LxUtB7-199" value="" style="endArrow=ERzeroToMany;html=1;rounded=0;startArrow=ERmandOne;startFill=0;endFill=0;exitX=1;exitY=0.5;exitDx=0;exitDy=0;entryX=0.28;entryY=1.031;entryDx=0;entryDy=0;entryPerimeter=0;" edge="1" parent="1" source="nB46SJz7qmsPy6LxUtB7-115" target="nB46SJz7qmsPy6LxUtB7-108">
          <mxGeometry width="50" height="50" relative="1" as="geometry">
            <mxPoint x="1040" y="430" as="sourcePoint" />
            <mxPoint x="1040" y="361" as="targetPoint" />
            <Array as="points">
              <mxPoint x="1370" y="495" />
            </Array>
          </mxGeometry>
        </mxCell>
        <mxCell id="nB46SJz7qmsPy6LxUtB7-200" value="processed by" style="text;html=1;align=center;verticalAlign=middle;resizable=0;points=[];autosize=1;strokeColor=none;fillColor=none;" vertex="1" parent="1">
          <mxGeometry x="1370" y="440" width="90" height="30" as="geometry" />
        </mxCell>
        <mxCell id="nB46SJz7qmsPy6LxUtB7-201" value="processes" style="text;html=1;align=center;verticalAlign=middle;resizable=0;points=[];autosize=1;strokeColor=none;fillColor=none;" vertex="1" parent="1">
          <mxGeometry x="1260" y="500" width="80" height="30" as="geometry" />
        </mxCell>
        <mxCell id="ww9zUrWgyFT_6apccC6J-13" value="" style="endArrow=ERmandOne;html=1;rounded=0;entryX=1;entryY=0.5;entryDx=0;entryDy=0;exitX=-0.003;exitY=0.431;exitDx=0;exitDy=0;exitPerimeter=0;startArrow=ERzeroToOne;startFill=0;endFill=0;" edge="1" parent="1" source="ww9zUrWgyFT_6apccC6J-23" target="nB46SJz7qmsPy6LxUtB7-28">
          <mxGeometry width="50" height="50" relative="1" as="geometry">
            <mxPoint x="2070" y="-288" as="sourcePoint" />
            <mxPoint x="2120" y="-338" as="targetPoint" />
          </mxGeometry>
        </mxCell>
        <mxCell id="ww9zUrWgyFT_6apccC6J-14" value="" style="endArrow=ERmandOne;html=1;rounded=0;entryX=0.202;entryY=1.005;entryDx=0;entryDy=0;entryPerimeter=0;exitX=0.5;exitY=0;exitDx=0;exitDy=0;startArrow=ERzeroToOne;startFill=0;endFill=0;" edge="1" parent="1" source="ww9zUrWgyFT_6apccC6J-26" target="nB46SJz7qmsPy6LxUtB7-28">
          <mxGeometry width="50" height="50" relative="1" as="geometry">
            <mxPoint x="2210" y="-133" as="sourcePoint" />
            <mxPoint x="2260" y="-183" as="targetPoint" />
            <Array as="points">
              <mxPoint x="1995" y="-200" />
              <mxPoint x="1951" y="-200" />
            </Array>
          </mxGeometry>
        </mxCell>
        <mxCell id="ww9zUrWgyFT_6apccC6J-15" value="" style="endArrow=ERmandOne;html=1;rounded=0;entryX=0.66;entryY=1.014;entryDx=0;entryDy=0;entryPerimeter=0;exitX=0.5;exitY=0;exitDx=0;exitDy=0;startArrow=ERzeroToOne;startFill=0;endFill=0;" edge="1" parent="1" source="ww9zUrWgyFT_6apccC6J-33" target="nB46SJz7qmsPy6LxUtB7-28">
          <mxGeometry width="50" height="50" relative="1" as="geometry">
            <mxPoint x="2435" y="-154.66666666666663" as="sourcePoint" />
            <mxPoint x="2410" y="-208" as="targetPoint" />
            <Array as="points">
              <mxPoint x="2315" y="-220" />
              <mxPoint x="2065" y="-220" />
            </Array>
          </mxGeometry>
        </mxCell>
        <mxCell id="ww9zUrWgyFT_6apccC6J-16" value="" style="shape=partialRectangle;collapsible=0;dropTarget=0;pointerEvents=0;fillColor=none;points=[[0,0.5],[1,0.5]];portConstraint=eastwest;top=0;left=0;right=0;bottom=0;" vertex="1" parent="1">
          <mxGeometry x="1300" y="290" width="250" height="30" as="geometry" />
        </mxCell>
        <mxCell id="ww9zUrWgyFT_6apccC6J-17" value="FK3" style="shape=partialRectangle;overflow=hidden;connectable=0;fillColor=none;top=0;left=0;bottom=0;right=0;" vertex="1" parent="ww9zUrWgyFT_6apccC6J-16">
          <mxGeometry x="10" width="30" height="30" as="geometry">
            <mxRectangle width="30" height="30" as="alternateBounds" />
          </mxGeometry>
        </mxCell>
        <mxCell id="ww9zUrWgyFT_6apccC6J-18" value="processed_by_employee_id" style="shape=partialRectangle;overflow=hidden;connectable=0;fillColor=none;top=0;left=0;bottom=0;right=0;align=left;spacingLeft=6;" vertex="1" parent="ww9zUrWgyFT_6apccC6J-16">
          <mxGeometry x="60" width="190" height="30" as="geometry">
            <mxRectangle width="220" height="30" as="alternateBounds" />
          </mxGeometry>
        </mxCell>
        <mxCell id="ww9zUrWgyFT_6apccC6J-19" value="HEALTH_INSURANCE" style="shape=table;startSize=30;container=1;collapsible=1;childLayout=tableLayout;fixedRows=1;rowLines=0;fontStyle=1;align=center;resizeLast=1;" vertex="1" parent="1">
          <mxGeometry x="2350" y="-452" width="250" height="180" as="geometry" />
        </mxCell>
        <mxCell id="ww9zUrWgyFT_6apccC6J-20" value="" style="shape=partialRectangle;collapsible=0;dropTarget=0;pointerEvents=0;fillColor=none;points=[[0,0.5],[1,0.5]];portConstraint=eastwest;top=0;left=0;right=0;bottom=1;" vertex="1" parent="ww9zUrWgyFT_6apccC6J-19">
          <mxGeometry y="30" width="250" height="30" as="geometry" />
        </mxCell>
        <mxCell id="ww9zUrWgyFT_6apccC6J-21" value="PK, FK1" style="shape=partialRectangle;overflow=hidden;connectable=0;fillColor=none;top=0;left=0;bottom=0;right=0;fontStyle=1;" vertex="1" parent="ww9zUrWgyFT_6apccC6J-20">
          <mxGeometry width="50" height="30" as="geometry">
            <mxRectangle width="50" height="30" as="alternateBounds" />
          </mxGeometry>
        </mxCell>
        <mxCell id="ww9zUrWgyFT_6apccC6J-22" value="health_insurance_id" style="shape=partialRectangle;overflow=hidden;connectable=0;fillColor=none;top=0;left=0;bottom=0;right=0;align=left;spacingLeft=6;fontStyle=5;" vertex="1" parent="ww9zUrWgyFT_6apccC6J-20">
          <mxGeometry x="50" width="200" height="30" as="geometry">
            <mxRectangle width="200" height="30" as="alternateBounds" />
          </mxGeometry>
        </mxCell>
        <mxCell id="ww9zUrWgyFT_6apccC6J-23" value="" style="shape=partialRectangle;collapsible=0;dropTarget=0;pointerEvents=0;fillColor=none;points=[[0,0.5],[1,0.5]];portConstraint=eastwest;top=0;left=0;right=0;bottom=0;" vertex="1" parent="ww9zUrWgyFT_6apccC6J-19">
          <mxGeometry y="60" width="250" height="120" as="geometry" />
        </mxCell>
        <mxCell id="ww9zUrWgyFT_6apccC6J-24" value="" style="shape=partialRectangle;overflow=hidden;connectable=0;fillColor=none;top=0;left=0;bottom=0;right=0;" vertex="1" parent="ww9zUrWgyFT_6apccC6J-23">
          <mxGeometry width="50" height="120" as="geometry">
            <mxRectangle width="50" height="120" as="alternateBounds" />
          </mxGeometry>
        </mxCell>
        <mxCell id="ww9zUrWgyFT_6apccC6J-25" value="health_plan_type" style="shape=partialRectangle;overflow=hidden;connectable=0;fillColor=none;top=0;left=0;bottom=0;right=0;align=left;spacingLeft=6;fontSize=13;" vertex="1" parent="ww9zUrWgyFT_6apccC6J-23">
          <mxGeometry x="50" width="200" height="120" as="geometry">
            <mxRectangle width="200" height="120" as="alternateBounds" />
          </mxGeometry>
        </mxCell>
        <mxCell id="ww9zUrWgyFT_6apccC6J-26" value="PROPERTY_INSURANCE" style="shape=table;startSize=30;container=1;collapsible=1;childLayout=tableLayout;fixedRows=1;rowLines=0;fontStyle=1;align=center;resizeLast=1;" vertex="1" parent="1">
          <mxGeometry x="1870" y="-150" width="250" height="180" as="geometry" />
        </mxCell>
        <mxCell id="ww9zUrWgyFT_6apccC6J-27" value="" style="shape=partialRectangle;collapsible=0;dropTarget=0;pointerEvents=0;fillColor=none;points=[[0,0.5],[1,0.5]];portConstraint=eastwest;top=0;left=0;right=0;bottom=1;" vertex="1" parent="ww9zUrWgyFT_6apccC6J-26">
          <mxGeometry y="30" width="250" height="30" as="geometry" />
        </mxCell>
        <mxCell id="ww9zUrWgyFT_6apccC6J-28" value="PK, FK1" style="shape=partialRectangle;overflow=hidden;connectable=0;fillColor=none;top=0;left=0;bottom=0;right=0;fontStyle=1;" vertex="1" parent="ww9zUrWgyFT_6apccC6J-27">
          <mxGeometry width="50" height="30" as="geometry">
            <mxRectangle width="50" height="30" as="alternateBounds" />
          </mxGeometry>
        </mxCell>
        <mxCell id="ww9zUrWgyFT_6apccC6J-29" value="property_insurance_id" style="shape=partialRectangle;overflow=hidden;connectable=0;fillColor=none;top=0;left=0;bottom=0;right=0;align=left;spacingLeft=6;fontStyle=5;" vertex="1" parent="ww9zUrWgyFT_6apccC6J-27">
          <mxGeometry x="50" width="200" height="30" as="geometry">
            <mxRectangle width="200" height="30" as="alternateBounds" />
          </mxGeometry>
        </mxCell>
        <mxCell id="ww9zUrWgyFT_6apccC6J-30" value="" style="shape=partialRectangle;collapsible=0;dropTarget=0;pointerEvents=0;fillColor=none;points=[[0,0.5],[1,0.5]];portConstraint=eastwest;top=0;left=0;right=0;bottom=0;" vertex="1" parent="ww9zUrWgyFT_6apccC6J-26">
          <mxGeometry y="60" width="250" height="120" as="geometry" />
        </mxCell>
        <mxCell id="ww9zUrWgyFT_6apccC6J-31" value="" style="shape=partialRectangle;overflow=hidden;connectable=0;fillColor=none;top=0;left=0;bottom=0;right=0;" vertex="1" parent="ww9zUrWgyFT_6apccC6J-30">
          <mxGeometry width="50" height="120" as="geometry">
            <mxRectangle width="50" height="120" as="alternateBounds" />
          </mxGeometry>
        </mxCell>
        <mxCell id="ww9zUrWgyFT_6apccC6J-32" value="property_type&#xa;construction_year&#xa;market_value" style="shape=partialRectangle;overflow=hidden;connectable=0;fillColor=none;top=0;left=0;bottom=0;right=0;align=left;spacingLeft=6;fontSize=13;" vertex="1" parent="ww9zUrWgyFT_6apccC6J-30">
          <mxGeometry x="50" width="200" height="120" as="geometry">
            <mxRectangle width="200" height="120" as="alternateBounds" />
          </mxGeometry>
        </mxCell>
        <mxCell id="ww9zUrWgyFT_6apccC6J-33" value="VEHICLE_INSURANCE" style="shape=table;startSize=28;container=1;collapsible=1;childLayout=tableLayout;fixedRows=1;rowLines=0;fontStyle=1;align=center;resizeLast=1;" vertex="1" parent="1">
          <mxGeometry x="2190" y="-150" width="250" height="180" as="geometry" />
        </mxCell>
        <mxCell id="ww9zUrWgyFT_6apccC6J-34" value="" style="shape=partialRectangle;collapsible=0;dropTarget=0;pointerEvents=0;fillColor=none;points=[[0,0.5],[1,0.5]];portConstraint=eastwest;top=0;left=0;right=0;bottom=1;" vertex="1" parent="ww9zUrWgyFT_6apccC6J-33">
          <mxGeometry y="28" width="250" height="30" as="geometry" />
        </mxCell>
        <mxCell id="ww9zUrWgyFT_6apccC6J-35" value="PK, FK1" style="shape=partialRectangle;overflow=hidden;connectable=0;fillColor=none;top=0;left=0;bottom=0;right=0;fontStyle=1;" vertex="1" parent="ww9zUrWgyFT_6apccC6J-34">
          <mxGeometry width="50" height="30" as="geometry">
            <mxRectangle width="50" height="30" as="alternateBounds" />
          </mxGeometry>
        </mxCell>
        <mxCell id="ww9zUrWgyFT_6apccC6J-36" value="vehicle_insurance_id" style="shape=partialRectangle;overflow=hidden;connectable=0;fillColor=none;top=0;left=0;bottom=0;right=0;align=left;spacingLeft=6;fontStyle=5;" vertex="1" parent="ww9zUrWgyFT_6apccC6J-34">
          <mxGeometry x="50" width="200" height="30" as="geometry">
            <mxRectangle width="200" height="30" as="alternateBounds" />
          </mxGeometry>
        </mxCell>
        <mxCell id="ww9zUrWgyFT_6apccC6J-37" value="" style="shape=partialRectangle;collapsible=0;dropTarget=0;pointerEvents=0;fillColor=none;points=[[0,0.5],[1,0.5]];portConstraint=eastwest;top=0;left=0;right=0;bottom=0;" vertex="1" parent="ww9zUrWgyFT_6apccC6J-33">
          <mxGeometry y="58" width="250" height="120" as="geometry" />
        </mxCell>
        <mxCell id="ww9zUrWgyFT_6apccC6J-38" value="" style="shape=partialRectangle;overflow=hidden;connectable=0;fillColor=none;top=0;left=0;bottom=0;right=0;" vertex="1" parent="ww9zUrWgyFT_6apccC6J-37">
          <mxGeometry width="50" height="120" as="geometry">
            <mxRectangle width="50" height="120" as="alternateBounds" />
          </mxGeometry>
        </mxCell>
        <mxCell id="ww9zUrWgyFT_6apccC6J-39" value="vehicle_type&#xa;make&#xa;model&#xa;year" style="shape=partialRectangle;overflow=hidden;connectable=0;fillColor=none;top=0;left=0;bottom=0;right=0;align=left;spacingLeft=6;fontSize=13;" vertex="1" parent="ww9zUrWgyFT_6apccC6J-37">
          <mxGeometry x="50" width="200" height="120" as="geometry">
            <mxRectangle width="200" height="120" as="alternateBounds" />
          </mxGeometry>
        </mxCell>
        <mxCell id="ww9zUrWgyFT_6apccC6J-50" value="can be" style="text;html=1;align=center;verticalAlign=middle;resizable=0;points=[];autosize=1;strokeColor=none;fillColor=none;" vertex="1" parent="1">
          <mxGeometry x="2150" y="-370" width="60" height="30" as="geometry" />
        </mxCell>
        <mxCell id="ww9zUrWgyFT_6apccC6J-51" value="can be" style="text;html=1;align=center;verticalAlign=middle;resizable=0;points=[];autosize=1;strokeColor=none;fillColor=none;" vertex="1" parent="1">
          <mxGeometry x="1890" y="-280" width="60" height="30" as="geometry" />
        </mxCell>
        <mxCell id="ww9zUrWgyFT_6apccC6J-52" value="can be" style="text;html=1;align=center;verticalAlign=middle;resizable=0;points=[];autosize=1;strokeColor=none;fillColor=none;" vertex="1" parent="1">
          <mxGeometry x="2070" y="-280" width="60" height="30" as="geometry" />
        </mxCell>
        <mxCell id="ww9zUrWgyFT_6apccC6J-55" value="type of&amp;nbsp;" style="text;html=1;align=center;verticalAlign=middle;resizable=0;points=[];autosize=1;strokeColor=none;fillColor=none;" vertex="1" parent="1">
          <mxGeometry x="2290" y="-370" width="60" height="30" as="geometry" />
        </mxCell>
        <mxCell id="ww9zUrWgyFT_6apccC6J-56" value="type of&amp;nbsp;" style="text;html=1;align=center;verticalAlign=middle;resizable=0;points=[];autosize=1;strokeColor=none;fillColor=none;" vertex="1" parent="1">
          <mxGeometry x="2010" y="-175" width="60" height="30" as="geometry" />
        </mxCell>
        <mxCell id="ww9zUrWgyFT_6apccC6J-57" value="type of&amp;nbsp;" style="text;html=1;align=center;verticalAlign=middle;resizable=0;points=[];autosize=1;strokeColor=none;fillColor=none;" vertex="1" parent="1">
          <mxGeometry x="2320" y="-180" width="60" height="30" as="geometry" />
        </mxCell>
        <mxCell id="ww9zUrWgyFT_6apccC6J-68" value="associated with" style="text;html=1;align=center;verticalAlign=middle;resizable=0;points=[];autosize=1;strokeColor=none;fillColor=none;" vertex="1" parent="1">
          <mxGeometry x="1760" y="60" width="110" height="30" as="geometry" />
        </mxCell>
        <mxCell id="ww9zUrWgyFT_6apccC6J-70" value="CUSTOMER_FINANCIAL_INSTRUMENT" style="shape=table;startSize=20;container=1;collapsible=1;childLayout=tableLayout;fixedRows=1;rowLines=0;fontStyle=1;align=center;resizeLast=1;" vertex="1" parent="1">
          <mxGeometry x="970" y="-312" width="250" height="120" as="geometry" />
        </mxCell>
        <mxCell id="ww9zUrWgyFT_6apccC6J-71" value="" style="shape=partialRectangle;collapsible=0;dropTarget=0;pointerEvents=0;fillColor=none;points=[[0,0.5],[1,0.5]];portConstraint=eastwest;top=0;left=0;right=0;bottom=1;" vertex="1" parent="ww9zUrWgyFT_6apccC6J-70">
          <mxGeometry y="20" width="250" height="30" as="geometry" />
        </mxCell>
        <mxCell id="ww9zUrWgyFT_6apccC6J-72" value="PK, FK1" style="shape=partialRectangle;overflow=hidden;connectable=0;fillColor=none;top=0;left=0;bottom=0;right=0;fontStyle=1;" vertex="1" parent="ww9zUrWgyFT_6apccC6J-71">
          <mxGeometry width="50" height="30" as="geometry">
            <mxRectangle width="50" height="30" as="alternateBounds" />
          </mxGeometry>
        </mxCell>
        <mxCell id="ww9zUrWgyFT_6apccC6J-73" value="instrument_id" style="shape=partialRectangle;overflow=hidden;connectable=0;fillColor=none;top=0;left=0;bottom=0;right=0;align=left;spacingLeft=6;fontStyle=5;" vertex="1" parent="ww9zUrWgyFT_6apccC6J-71">
          <mxGeometry x="50" width="200" height="30" as="geometry">
            <mxRectangle width="200" height="30" as="alternateBounds" />
          </mxGeometry>
        </mxCell>
        <mxCell id="ww9zUrWgyFT_6apccC6J-74" value="" style="shape=partialRectangle;collapsible=0;dropTarget=0;pointerEvents=0;fillColor=none;points=[[0,0.5],[1,0.5]];portConstraint=eastwest;top=0;left=0;right=0;bottom=0;" vertex="1" parent="ww9zUrWgyFT_6apccC6J-70">
          <mxGeometry y="50" width="250" height="30" as="geometry" />
        </mxCell>
        <mxCell id="ww9zUrWgyFT_6apccC6J-75" value="PK, FK2" style="shape=partialRectangle;overflow=hidden;connectable=0;fillColor=none;top=0;left=0;bottom=0;right=0;fontStyle=1" vertex="1" parent="ww9zUrWgyFT_6apccC6J-74">
          <mxGeometry width="50" height="30" as="geometry">
            <mxRectangle width="50" height="30" as="alternateBounds" />
          </mxGeometry>
        </mxCell>
        <mxCell id="ww9zUrWgyFT_6apccC6J-76" value="customer_id" style="shape=partialRectangle;overflow=hidden;connectable=0;fillColor=none;top=0;left=0;bottom=0;right=0;align=left;spacingLeft=6;fontStyle=5" vertex="1" parent="ww9zUrWgyFT_6apccC6J-74">
          <mxGeometry x="50" width="200" height="30" as="geometry">
            <mxRectangle width="200" height="30" as="alternateBounds" />
          </mxGeometry>
        </mxCell>
        <mxCell id="ww9zUrWgyFT_6apccC6J-77" value="" style="shape=partialRectangle;collapsible=0;dropTarget=0;pointerEvents=0;fillColor=none;points=[[0,0.5],[1,0.5]];portConstraint=eastwest;top=0;left=0;right=0;bottom=0;" vertex="1" parent="ww9zUrWgyFT_6apccC6J-70">
          <mxGeometry y="80" width="250" height="40" as="geometry" />
        </mxCell>
        <mxCell id="ww9zUrWgyFT_6apccC6J-78" value="" style="shape=partialRectangle;overflow=hidden;connectable=0;fillColor=none;top=0;left=0;bottom=0;right=0;" vertex="1" parent="ww9zUrWgyFT_6apccC6J-77">
          <mxGeometry width="50" height="40" as="geometry">
            <mxRectangle width="50" height="40" as="alternateBounds" />
          </mxGeometry>
        </mxCell>
        <mxCell id="ww9zUrWgyFT_6apccC6J-79" value="role&#xa;enrollment_date" style="shape=partialRectangle;overflow=hidden;connectable=0;fillColor=none;top=0;left=0;bottom=0;right=0;align=left;spacingLeft=6;fontSize=13;" vertex="1" parent="ww9zUrWgyFT_6apccC6J-77">
          <mxGeometry x="50" width="200" height="40" as="geometry">
            <mxRectangle width="200" height="40" as="alternateBounds" />
          </mxGeometry>
        </mxCell>
        <mxCell id="ww9zUrWgyFT_6apccC6J-81" value="" style="endArrow=ERzeroToMany;html=1;rounded=0;exitX=0;exitY=0.5;exitDx=0;exitDy=0;entryX=1.007;entryY=0.237;entryDx=0;entryDy=0;entryPerimeter=0;startArrow=ERmandOne;startFill=0;endFill=0;" edge="1" parent="1" source="a7ZM1lEsg8ICDF3q9rtQ-8" target="ww9zUrWgyFT_6apccC6J-77">
          <mxGeometry width="50" height="50" relative="1" as="geometry">
            <mxPoint x="1260" y="-200" as="sourcePoint" />
            <mxPoint x="1310" y="-250" as="targetPoint" />
            <Array as="points">
              <mxPoint x="1305" y="-370" />
              <mxPoint x="1305" y="-224" />
            </Array>
          </mxGeometry>
        </mxCell>
        <mxCell id="ww9zUrWgyFT_6apccC6J-82" value="" style="endArrow=ERzeroToMany;html=1;rounded=0;exitX=1;exitY=0.5;exitDx=0;exitDy=0;entryX=-0.002;entryY=0.3;entryDx=0;entryDy=0;entryPerimeter=0;startArrow=ERmandOne;startFill=0;endFill=0;" edge="1" parent="1" source="nB46SJz7qmsPy6LxUtB7-65" target="ww9zUrWgyFT_6apccC6J-77">
          <mxGeometry width="50" height="50" relative="1" as="geometry">
            <mxPoint x="1020" y="-20" as="sourcePoint" />
            <mxPoint x="966" y="-216" as="targetPoint" />
          </mxGeometry>
        </mxCell>
        <mxCell id="ww9zUrWgyFT_6apccC6J-83" value="linked to" style="text;html=1;align=center;verticalAlign=middle;resizable=0;points=[];autosize=1;strokeColor=none;fillColor=none;" vertex="1" parent="1">
          <mxGeometry x="1220" y="-250" width="70" height="30" as="geometry" />
        </mxCell>
        <mxCell id="ww9zUrWgyFT_6apccC6J-84" value="has" style="text;html=1;align=center;verticalAlign=middle;resizable=0;points=[];autosize=1;strokeColor=none;fillColor=none;" vertex="1" parent="1">
          <mxGeometry x="865" y="-220" width="40" height="30" as="geometry" />
        </mxCell>
        <mxCell id="ww9zUrWgyFT_6apccC6J-85" value="linked to" style="text;html=1;align=center;verticalAlign=middle;resizable=0;points=[];autosize=1;strokeColor=none;fillColor=none;" vertex="1" parent="1">
          <mxGeometry x="900" y="-250" width="70" height="30" as="geometry" />
        </mxCell>
        <mxCell id="ww9zUrWgyFT_6apccC6J-86" value="" style="shape=partialRectangle;collapsible=0;dropTarget=0;pointerEvents=0;fillColor=none;points=[[0,0.5],[1,0.5]];portConstraint=eastwest;top=0;left=0;right=0;bottom=0;" vertex="1" parent="1">
          <mxGeometry x="120" y="10" width="250" height="30" as="geometry" />
        </mxCell>
        <mxCell id="ww9zUrWgyFT_6apccC6J-87" value="FK1" style="shape=partialRectangle;overflow=hidden;connectable=0;fillColor=none;top=0;left=0;bottom=0;right=0;" vertex="1" parent="ww9zUrWgyFT_6apccC6J-86">
          <mxGeometry width="30" height="30" as="geometry">
            <mxRectangle width="30" height="30" as="alternateBounds" />
          </mxGeometry>
        </mxCell>
        <mxCell id="ww9zUrWgyFT_6apccC6J-88" value="customer_id" style="shape=partialRectangle;overflow=hidden;connectable=0;fillColor=none;top=0;left=0;bottom=0;right=0;align=left;spacingLeft=6;" vertex="1" parent="ww9zUrWgyFT_6apccC6J-86">
          <mxGeometry x="30" width="220" height="30" as="geometry">
            <mxRectangle width="220" height="30" as="alternateBounds" />
          </mxGeometry>
        </mxCell>
        <mxCell id="ww9zUrWgyFT_6apccC6J-89" value="" style="shape=partialRectangle;collapsible=0;dropTarget=0;pointerEvents=0;fillColor=none;points=[[0,0.5],[1,0.5]];portConstraint=eastwest;top=0;left=0;right=0;bottom=0;" vertex="1" parent="1">
          <mxGeometry x="1180" y="-130" width="250" height="30" as="geometry" />
        </mxCell>
        <mxCell id="ww9zUrWgyFT_6apccC6J-90" value="FK2" style="shape=partialRectangle;overflow=hidden;connectable=0;fillColor=none;top=0;left=0;bottom=0;right=0;" vertex="1" parent="ww9zUrWgyFT_6apccC6J-89">
          <mxGeometry width="30" height="30" as="geometry">
            <mxRectangle width="30" height="30" as="alternateBounds" />
          </mxGeometry>
        </mxCell>
        <mxCell id="ww9zUrWgyFT_6apccC6J-91" value="branch_id" style="shape=partialRectangle;overflow=hidden;connectable=0;fillColor=none;top=0;left=0;bottom=0;right=0;align=left;spacingLeft=6;" vertex="1" parent="ww9zUrWgyFT_6apccC6J-89">
          <mxGeometry x="60" width="190" height="30" as="geometry">
            <mxRectangle width="220" height="30" as="alternateBounds" />
          </mxGeometry>
        </mxCell>
        <mxCell id="ww9zUrWgyFT_6apccC6J-103" value="VEHICLE_LOAN" style="shape=table;startSize=30;container=1;collapsible=1;childLayout=tableLayout;fixedRows=1;rowLines=0;fontStyle=1;align=center;resizeLast=1;" vertex="1" parent="1">
          <mxGeometry x="1840" y="230" width="250" height="180" as="geometry" />
        </mxCell>
        <mxCell id="ww9zUrWgyFT_6apccC6J-104" value="" style="shape=partialRectangle;collapsible=0;dropTarget=0;pointerEvents=0;fillColor=none;points=[[0,0.5],[1,0.5]];portConstraint=eastwest;top=0;left=0;right=0;bottom=1;" vertex="1" parent="ww9zUrWgyFT_6apccC6J-103">
          <mxGeometry y="30" width="250" height="30" as="geometry" />
        </mxCell>
        <mxCell id="ww9zUrWgyFT_6apccC6J-105" value="PK, FK1" style="shape=partialRectangle;overflow=hidden;connectable=0;fillColor=none;top=0;left=0;bottom=0;right=0;fontStyle=1;" vertex="1" parent="ww9zUrWgyFT_6apccC6J-104">
          <mxGeometry width="50" height="30" as="geometry">
            <mxRectangle width="50" height="30" as="alternateBounds" />
          </mxGeometry>
        </mxCell>
        <mxCell id="ww9zUrWgyFT_6apccC6J-106" value="vehicle_loan_id" style="shape=partialRectangle;overflow=hidden;connectable=0;fillColor=none;top=0;left=0;bottom=0;right=0;align=left;spacingLeft=6;fontStyle=5;" vertex="1" parent="ww9zUrWgyFT_6apccC6J-104">
          <mxGeometry x="50" width="200" height="30" as="geometry">
            <mxRectangle width="200" height="30" as="alternateBounds" />
          </mxGeometry>
        </mxCell>
        <mxCell id="ww9zUrWgyFT_6apccC6J-107" value="" style="shape=partialRectangle;collapsible=0;dropTarget=0;pointerEvents=0;fillColor=none;points=[[0,0.5],[1,0.5]];portConstraint=eastwest;top=0;left=0;right=0;bottom=0;" vertex="1" parent="ww9zUrWgyFT_6apccC6J-103">
          <mxGeometry y="60" width="250" height="120" as="geometry" />
        </mxCell>
        <mxCell id="ww9zUrWgyFT_6apccC6J-108" value="" style="shape=partialRectangle;overflow=hidden;connectable=0;fillColor=none;top=0;left=0;bottom=0;right=0;" vertex="1" parent="ww9zUrWgyFT_6apccC6J-107">
          <mxGeometry width="50" height="120" as="geometry">
            <mxRectangle width="50" height="120" as="alternateBounds" />
          </mxGeometry>
        </mxCell>
        <mxCell id="ww9zUrWgyFT_6apccC6J-109" value="vehicle_type&#xa;make&#xa;model&#xa;year&#xa;vin" style="shape=partialRectangle;overflow=hidden;connectable=0;fillColor=none;top=0;left=0;bottom=0;right=0;align=left;spacingLeft=6;fontSize=13;" vertex="1" parent="ww9zUrWgyFT_6apccC6J-107">
          <mxGeometry x="50" width="200" height="120" as="geometry">
            <mxRectangle width="200" height="120" as="alternateBounds" />
          </mxGeometry>
        </mxCell>
        <mxCell id="ww9zUrWgyFT_6apccC6J-110" value="STUDENT_LOAN" style="shape=table;startSize=30;container=1;collapsible=1;childLayout=tableLayout;fixedRows=1;rowLines=0;fontStyle=1;align=center;resizeLast=1;" vertex="1" parent="1">
          <mxGeometry x="1840" y="470" width="250" height="180" as="geometry" />
        </mxCell>
        <mxCell id="ww9zUrWgyFT_6apccC6J-111" value="" style="shape=partialRectangle;collapsible=0;dropTarget=0;pointerEvents=0;fillColor=none;points=[[0,0.5],[1,0.5]];portConstraint=eastwest;top=0;left=0;right=0;bottom=1;" vertex="1" parent="ww9zUrWgyFT_6apccC6J-110">
          <mxGeometry y="30" width="250" height="30" as="geometry" />
        </mxCell>
        <mxCell id="ww9zUrWgyFT_6apccC6J-112" value="PK, FK1" style="shape=partialRectangle;overflow=hidden;connectable=0;fillColor=none;top=0;left=0;bottom=0;right=0;fontStyle=1;" vertex="1" parent="ww9zUrWgyFT_6apccC6J-111">
          <mxGeometry width="50" height="30" as="geometry">
            <mxRectangle width="50" height="30" as="alternateBounds" />
          </mxGeometry>
        </mxCell>
        <mxCell id="ww9zUrWgyFT_6apccC6J-113" value="student_loan_id" style="shape=partialRectangle;overflow=hidden;connectable=0;fillColor=none;top=0;left=0;bottom=0;right=0;align=left;spacingLeft=6;fontStyle=5;" vertex="1" parent="ww9zUrWgyFT_6apccC6J-111">
          <mxGeometry x="50" width="200" height="30" as="geometry">
            <mxRectangle width="200" height="30" as="alternateBounds" />
          </mxGeometry>
        </mxCell>
        <mxCell id="ww9zUrWgyFT_6apccC6J-114" value="" style="shape=partialRectangle;collapsible=0;dropTarget=0;pointerEvents=0;fillColor=none;points=[[0,0.5],[1,0.5]];portConstraint=eastwest;top=0;left=0;right=0;bottom=0;" vertex="1" parent="ww9zUrWgyFT_6apccC6J-110">
          <mxGeometry y="60" width="250" height="120" as="geometry" />
        </mxCell>
        <mxCell id="ww9zUrWgyFT_6apccC6J-115" value="" style="shape=partialRectangle;overflow=hidden;connectable=0;fillColor=none;top=0;left=0;bottom=0;right=0;" vertex="1" parent="ww9zUrWgyFT_6apccC6J-114">
          <mxGeometry width="50" height="120" as="geometry">
            <mxRectangle width="50" height="120" as="alternateBounds" />
          </mxGeometry>
        </mxCell>
        <mxCell id="ww9zUrWgyFT_6apccC6J-116" value="school_name&#xa;tuition_amount&#xa;graduation_date&#xa;cosigner" style="shape=partialRectangle;overflow=hidden;connectable=0;fillColor=none;top=0;left=0;bottom=0;right=0;align=left;spacingLeft=6;fontSize=13;" vertex="1" parent="ww9zUrWgyFT_6apccC6J-114">
          <mxGeometry x="50" width="200" height="120" as="geometry">
            <mxRectangle width="200" height="120" as="alternateBounds" />
          </mxGeometry>
        </mxCell>
        <mxCell id="ww9zUrWgyFT_6apccC6J-117" value="MORTGAGE_LOAN" style="shape=table;startSize=30;container=1;collapsible=1;childLayout=tableLayout;fixedRows=1;rowLines=0;fontStyle=1;align=center;resizeLast=1;" vertex="1" parent="1">
          <mxGeometry x="1500" y="720" width="250" height="180" as="geometry" />
        </mxCell>
        <mxCell id="ww9zUrWgyFT_6apccC6J-118" value="" style="shape=partialRectangle;collapsible=0;dropTarget=0;pointerEvents=0;fillColor=none;points=[[0,0.5],[1,0.5]];portConstraint=eastwest;top=0;left=0;right=0;bottom=1;" vertex="1" parent="ww9zUrWgyFT_6apccC6J-117">
          <mxGeometry y="30" width="250" height="30" as="geometry" />
        </mxCell>
        <mxCell id="ww9zUrWgyFT_6apccC6J-119" value="PK, FK1" style="shape=partialRectangle;overflow=hidden;connectable=0;fillColor=none;top=0;left=0;bottom=0;right=0;fontStyle=1;" vertex="1" parent="ww9zUrWgyFT_6apccC6J-118">
          <mxGeometry width="50" height="30" as="geometry">
            <mxRectangle width="50" height="30" as="alternateBounds" />
          </mxGeometry>
        </mxCell>
        <mxCell id="ww9zUrWgyFT_6apccC6J-120" value="mortgage_loan_id" style="shape=partialRectangle;overflow=hidden;connectable=0;fillColor=none;top=0;left=0;bottom=0;right=0;align=left;spacingLeft=6;fontStyle=5;" vertex="1" parent="ww9zUrWgyFT_6apccC6J-118">
          <mxGeometry x="50" width="200" height="30" as="geometry">
            <mxRectangle width="200" height="30" as="alternateBounds" />
          </mxGeometry>
        </mxCell>
        <mxCell id="ww9zUrWgyFT_6apccC6J-121" value="" style="shape=partialRectangle;collapsible=0;dropTarget=0;pointerEvents=0;fillColor=none;points=[[0,0.5],[1,0.5]];portConstraint=eastwest;top=0;left=0;right=0;bottom=0;" vertex="1" parent="ww9zUrWgyFT_6apccC6J-117">
          <mxGeometry y="60" width="250" height="120" as="geometry" />
        </mxCell>
        <mxCell id="ww9zUrWgyFT_6apccC6J-122" value="" style="shape=partialRectangle;overflow=hidden;connectable=0;fillColor=none;top=0;left=0;bottom=0;right=0;" vertex="1" parent="ww9zUrWgyFT_6apccC6J-121">
          <mxGeometry width="50" height="120" as="geometry">
            <mxRectangle width="50" height="120" as="alternateBounds" />
          </mxGeometry>
        </mxCell>
        <mxCell id="ww9zUrWgyFT_6apccC6J-123" value="property_address&#xa;property_value&#xa;property_tax&#xa;down_payment_amount" style="shape=partialRectangle;overflow=hidden;connectable=0;fillColor=none;top=0;left=0;bottom=0;right=0;align=left;spacingLeft=6;fontSize=13;" vertex="1" parent="ww9zUrWgyFT_6apccC6J-121">
          <mxGeometry x="50" width="200" height="120" as="geometry">
            <mxRectangle width="200" height="120" as="alternateBounds" />
          </mxGeometry>
        </mxCell>
        <mxCell id="ww9zUrWgyFT_6apccC6J-124" value="BUSINESS_LOAN" style="shape=table;startSize=30;container=1;collapsible=1;childLayout=tableLayout;fixedRows=1;rowLines=0;fontStyle=1;align=center;resizeLast=1;" vertex="1" parent="1">
          <mxGeometry x="1180" y="720" width="250" height="180" as="geometry" />
        </mxCell>
        <mxCell id="ww9zUrWgyFT_6apccC6J-125" value="" style="shape=partialRectangle;collapsible=0;dropTarget=0;pointerEvents=0;fillColor=none;points=[[0,0.5],[1,0.5]];portConstraint=eastwest;top=0;left=0;right=0;bottom=1;" vertex="1" parent="ww9zUrWgyFT_6apccC6J-124">
          <mxGeometry y="30" width="250" height="30" as="geometry" />
        </mxCell>
        <mxCell id="ww9zUrWgyFT_6apccC6J-126" value="PK, FK1" style="shape=partialRectangle;overflow=hidden;connectable=0;fillColor=none;top=0;left=0;bottom=0;right=0;fontStyle=1;" vertex="1" parent="ww9zUrWgyFT_6apccC6J-125">
          <mxGeometry width="50" height="30" as="geometry">
            <mxRectangle width="50" height="30" as="alternateBounds" />
          </mxGeometry>
        </mxCell>
        <mxCell id="ww9zUrWgyFT_6apccC6J-127" value="business_loan_id" style="shape=partialRectangle;overflow=hidden;connectable=0;fillColor=none;top=0;left=0;bottom=0;right=0;align=left;spacingLeft=6;fontStyle=5;" vertex="1" parent="ww9zUrWgyFT_6apccC6J-125">
          <mxGeometry x="50" width="200" height="30" as="geometry">
            <mxRectangle width="200" height="30" as="alternateBounds" />
          </mxGeometry>
        </mxCell>
        <mxCell id="ww9zUrWgyFT_6apccC6J-128" value="" style="shape=partialRectangle;collapsible=0;dropTarget=0;pointerEvents=0;fillColor=none;points=[[0,0.5],[1,0.5]];portConstraint=eastwest;top=0;left=0;right=0;bottom=0;" vertex="1" parent="ww9zUrWgyFT_6apccC6J-124">
          <mxGeometry y="60" width="250" height="120" as="geometry" />
        </mxCell>
        <mxCell id="ww9zUrWgyFT_6apccC6J-129" value="" style="shape=partialRectangle;overflow=hidden;connectable=0;fillColor=none;top=0;left=0;bottom=0;right=0;" vertex="1" parent="ww9zUrWgyFT_6apccC6J-128">
          <mxGeometry width="50" height="120" as="geometry">
            <mxRectangle width="50" height="120" as="alternateBounds" />
          </mxGeometry>
        </mxCell>
        <mxCell id="ww9zUrWgyFT_6apccC6J-130" value="business_name&#xa;business_type&#xa;business_revenue" style="shape=partialRectangle;overflow=hidden;connectable=0;fillColor=none;top=0;left=0;bottom=0;right=0;align=left;spacingLeft=6;fontSize=13;" vertex="1" parent="ww9zUrWgyFT_6apccC6J-128">
          <mxGeometry x="50" width="200" height="120" as="geometry">
            <mxRectangle width="200" height="120" as="alternateBounds" />
          </mxGeometry>
        </mxCell>
        <mxCell id="ww9zUrWgyFT_6apccC6J-131" value="" style="endArrow=ERmandOne;html=1;rounded=0;entryX=0.904;entryY=1;entryDx=0;entryDy=0;entryPerimeter=0;exitX=0.109;exitY=-0.002;exitDx=0;exitDy=0;exitPerimeter=0;startArrow=ERzeroToOne;startFill=0;endFill=0;" edge="1" parent="1" source="ww9zUrWgyFT_6apccC6J-117" target="nB46SJz7qmsPy6LxUtB7-108">
          <mxGeometry width="50" height="50" relative="1" as="geometry">
            <mxPoint x="1570" y="620" as="sourcePoint" />
            <mxPoint x="1620" y="570" as="targetPoint" />
          </mxGeometry>
        </mxCell>
        <mxCell id="ww9zUrWgyFT_6apccC6J-132" value="" style="endArrow=ERmandOne;html=1;rounded=0;entryX=0.696;entryY=0.99;entryDx=0;entryDy=0;entryPerimeter=0;exitX=0.75;exitY=0;exitDx=0;exitDy=0;startArrow=ERzeroToOne;startFill=0;endFill=0;" edge="1" parent="1" source="ww9zUrWgyFT_6apccC6J-124" target="nB46SJz7qmsPy6LxUtB7-108">
          <mxGeometry width="50" height="50" relative="1" as="geometry">
            <mxPoint x="1520" y="600" as="sourcePoint" />
            <mxPoint x="1570" y="550" as="targetPoint" />
            <Array as="points">
              <mxPoint x="1370" y="570" />
              <mxPoint x="1470" y="570" />
            </Array>
          </mxGeometry>
        </mxCell>
        <mxCell id="ww9zUrWgyFT_6apccC6J-133" value="" style="endArrow=ERzeroToOne;html=1;rounded=0;exitX=1.005;exitY=0.867;exitDx=0;exitDy=0;exitPerimeter=0;entryX=-0.019;entryY=0.269;entryDx=0;entryDy=0;entryPerimeter=0;startArrow=ERmandOne;startFill=0;endFill=0;" edge="1" parent="1" source="nB46SJz7qmsPy6LxUtB7-108" target="ww9zUrWgyFT_6apccC6J-114">
          <mxGeometry width="50" height="50" relative="1" as="geometry">
            <mxPoint x="1570" y="620" as="sourcePoint" />
            <mxPoint x="1620" y="570" as="targetPoint" />
            <Array as="points">
              <mxPoint x="1650" y="420" />
              <mxPoint x="1650" y="562" />
            </Array>
          </mxGeometry>
        </mxCell>
        <mxCell id="ww9zUrWgyFT_6apccC6J-134" value="" style="endArrow=ERzeroToOne;html=1;rounded=0;exitX=1;exitY=0.5;exitDx=0;exitDy=0;entryX=0;entryY=0.5;entryDx=0;entryDy=0;startArrow=ERmandOne;startFill=0;endFill=0;" edge="1" parent="1" source="nB46SJz7qmsPy6LxUtB7-108" target="ww9zUrWgyFT_6apccC6J-107">
          <mxGeometry width="50" height="50" relative="1" as="geometry">
            <mxPoint x="1590" y="385" as="sourcePoint" />
            <mxPoint x="1640" y="335" as="targetPoint" />
          </mxGeometry>
        </mxCell>
        <mxCell id="ww9zUrWgyFT_6apccC6J-135" value="type of&amp;nbsp;" style="text;html=1;align=center;verticalAlign=middle;resizable=0;points=[];autosize=1;strokeColor=none;fillColor=none;" vertex="1" parent="1">
          <mxGeometry x="1310" y="690" width="60" height="30" as="geometry" />
        </mxCell>
        <mxCell id="ww9zUrWgyFT_6apccC6J-136" value="type of&amp;nbsp;" style="text;html=1;align=center;verticalAlign=middle;resizable=0;points=[];autosize=1;strokeColor=none;fillColor=none;" vertex="1" parent="1">
          <mxGeometry x="1530" y="690" width="60" height="30" as="geometry" />
        </mxCell>
        <mxCell id="ww9zUrWgyFT_6apccC6J-137" value="type of&amp;nbsp;" style="text;html=1;align=center;verticalAlign=middle;resizable=0;points=[];autosize=1;strokeColor=none;fillColor=none;" vertex="1" parent="1">
          <mxGeometry x="1785" y="530" width="60" height="30" as="geometry" />
        </mxCell>
        <mxCell id="ww9zUrWgyFT_6apccC6J-138" value="type of&amp;nbsp;" style="text;html=1;align=center;verticalAlign=middle;resizable=0;points=[];autosize=1;strokeColor=none;fillColor=none;" vertex="1" parent="1">
          <mxGeometry x="1790" y="360" width="60" height="30" as="geometry" />
        </mxCell>
        <mxCell id="ww9zUrWgyFT_6apccC6J-139" value="can be" style="text;html=1;align=center;verticalAlign=middle;resizable=0;points=[];autosize=1;strokeColor=none;fillColor=none;" vertex="1" parent="1">
          <mxGeometry x="1550" y="330" width="60" height="30" as="geometry" />
        </mxCell>
        <mxCell id="ww9zUrWgyFT_6apccC6J-140" value="can be" style="text;html=1;align=center;verticalAlign=middle;resizable=0;points=[];autosize=1;strokeColor=none;fillColor=none;" vertex="1" parent="1">
          <mxGeometry x="1550" y="385" width="60" height="30" as="geometry" />
        </mxCell>
        <mxCell id="ww9zUrWgyFT_6apccC6J-141" value="can be" style="text;html=1;align=center;verticalAlign=middle;resizable=0;points=[];autosize=1;strokeColor=none;fillColor=none;" vertex="1" parent="1">
          <mxGeometry x="1530" y="430" width="60" height="30" as="geometry" />
        </mxCell>
        <mxCell id="ww9zUrWgyFT_6apccC6J-142" value="can be" style="text;html=1;align=center;verticalAlign=middle;resizable=0;points=[];autosize=1;strokeColor=none;fillColor=none;" vertex="1" parent="1">
          <mxGeometry x="1460" y="430" width="60" height="30" as="geometry" />
        </mxCell>
        <mxCell id="ww9zUrWgyFT_6apccC6J-143" value="" style="shape=partialRectangle;collapsible=0;dropTarget=0;pointerEvents=0;fillColor=none;points=[[0,0.5],[1,0.5]];portConstraint=eastwest;top=0;left=0;right=0;bottom=0;" vertex="1" parent="1">
          <mxGeometry x="1010" y="500" width="250" height="30" as="geometry" />
        </mxCell>
        <mxCell id="ww9zUrWgyFT_6apccC6J-144" value="FK2" style="shape=partialRectangle;overflow=hidden;connectable=0;fillColor=none;top=0;left=0;bottom=0;right=0;" vertex="1" parent="ww9zUrWgyFT_6apccC6J-143">
          <mxGeometry width="30" height="30" as="geometry">
            <mxRectangle width="30" height="30" as="alternateBounds" />
          </mxGeometry>
        </mxCell>
        <mxCell id="ww9zUrWgyFT_6apccC6J-145" value="manager_id" style="shape=partialRectangle;overflow=hidden;connectable=0;fillColor=none;top=0;left=0;bottom=0;right=0;align=left;spacingLeft=6;" vertex="1" parent="ww9zUrWgyFT_6apccC6J-143">
          <mxGeometry x="30" width="220" height="30" as="geometry">
            <mxRectangle width="220" height="30" as="alternateBounds" />
          </mxGeometry>
        </mxCell>
        <mxCell id="a7ZM1lEsg8ICDF3q9rtQ-1" value="FINANCIAL_INSTRUMENT" style="shape=table;startSize=20;container=1;collapsible=1;childLayout=tableLayout;fixedRows=1;rowLines=0;fontStyle=1;align=center;resizeLast=1;" vertex="1" parent="1">
          <mxGeometry x="1400" y="-460" width="250" height="140" as="geometry" />
        </mxCell>
        <mxCell id="a7ZM1lEsg8ICDF3q9rtQ-2" value="" style="shape=partialRectangle;collapsible=0;dropTarget=0;pointerEvents=0;fillColor=none;points=[[0,0.5],[1,0.5]];portConstraint=eastwest;top=0;left=0;right=0;bottom=1;" vertex="1" parent="a7ZM1lEsg8ICDF3q9rtQ-1">
          <mxGeometry y="20" width="250" height="30" as="geometry" />
        </mxCell>
        <mxCell id="a7ZM1lEsg8ICDF3q9rtQ-3" value="PK" style="shape=partialRectangle;overflow=hidden;connectable=0;fillColor=none;top=0;left=0;bottom=0;right=0;fontStyle=1;" vertex="1" parent="a7ZM1lEsg8ICDF3q9rtQ-2">
          <mxGeometry width="30" height="30" as="geometry">
            <mxRectangle width="30" height="30" as="alternateBounds" />
          </mxGeometry>
        </mxCell>
        <mxCell id="a7ZM1lEsg8ICDF3q9rtQ-4" value="instrument_id" style="shape=partialRectangle;overflow=hidden;connectable=0;fillColor=none;top=0;left=0;bottom=0;right=0;align=left;spacingLeft=6;fontStyle=5;" vertex="1" parent="a7ZM1lEsg8ICDF3q9rtQ-2">
          <mxGeometry x="30" width="220" height="30" as="geometry">
            <mxRectangle width="220" height="30" as="alternateBounds" />
          </mxGeometry>
        </mxCell>
        <mxCell id="a7ZM1lEsg8ICDF3q9rtQ-8" value="" style="shape=partialRectangle;collapsible=0;dropTarget=0;pointerEvents=0;fillColor=none;points=[[0,0.5],[1,0.5]];portConstraint=eastwest;top=0;left=0;right=0;bottom=0;" vertex="1" parent="a7ZM1lEsg8ICDF3q9rtQ-1">
          <mxGeometry y="50" width="250" height="80" as="geometry" />
        </mxCell>
        <mxCell id="a7ZM1lEsg8ICDF3q9rtQ-9" value="" style="shape=partialRectangle;overflow=hidden;connectable=0;fillColor=none;top=0;left=0;bottom=0;right=0;" vertex="1" parent="a7ZM1lEsg8ICDF3q9rtQ-8">
          <mxGeometry width="30" height="80" as="geometry">
            <mxRectangle width="30" height="80" as="alternateBounds" />
          </mxGeometry>
        </mxCell>
        <mxCell id="a7ZM1lEsg8ICDF3q9rtQ-10" value="instrument_type&#xa;status" style="shape=partialRectangle;overflow=hidden;connectable=0;fillColor=none;top=0;left=0;bottom=0;right=0;align=left;spacingLeft=6;fontSize=13;" vertex="1" parent="a7ZM1lEsg8ICDF3q9rtQ-8">
          <mxGeometry x="30" width="220" height="80" as="geometry">
            <mxRectangle width="220" height="80" as="alternateBounds" />
          </mxGeometry>
        </mxCell>
        <mxCell id="a7ZM1lEsg8ICDF3q9rtQ-11" value="can be" style="text;html=1;align=center;verticalAlign=middle;resizable=0;points=[];autosize=1;strokeColor=none;fillColor=none;" vertex="1" parent="1">
          <mxGeometry x="1400" y="-320" width="60" height="30" as="geometry" />
        </mxCell>
        <mxCell id="a7ZM1lEsg8ICDF3q9rtQ-12" value="type of" style="text;html=1;align=center;verticalAlign=middle;resizable=0;points=[];autosize=1;strokeColor=none;fillColor=none;" vertex="1" parent="1">
          <mxGeometry x="1490" y="193" width="60" height="30" as="geometry" />
        </mxCell>
        <mxCell id="a7ZM1lEsg8ICDF3q9rtQ-13" value="can be" style="text;html=1;align=center;verticalAlign=middle;resizable=0;points=[];autosize=1;strokeColor=none;fillColor=none;" vertex="1" parent="1">
          <mxGeometry x="1500" y="-320" width="60" height="30" as="geometry" />
        </mxCell>
        <mxCell id="a7ZM1lEsg8ICDF3q9rtQ-14" value="can be" style="text;html=1;align=center;verticalAlign=middle;resizable=0;points=[];autosize=1;strokeColor=none;fillColor=none;" vertex="1" parent="1">
          <mxGeometry x="1460" y="-490" width="60" height="30" as="geometry" />
        </mxCell>
        <mxCell id="a7ZM1lEsg8ICDF3q9rtQ-15" value="can be" style="text;html=1;align=center;verticalAlign=middle;resizable=0;points=[];autosize=1;strokeColor=none;fillColor=none;" vertex="1" parent="1">
          <mxGeometry x="1650" y="-400" width="60" height="30" as="geometry" />
        </mxCell>
        <mxCell id="a7ZM1lEsg8ICDF3q9rtQ-16" value="" style="endArrow=ERmandOne;html=1;rounded=0;entryX=0.75;entryY=1;entryDx=0;entryDy=0;exitX=0.147;exitY=-0.002;exitDx=0;exitDy=0;exitPerimeter=0;startArrow=ERzeroToMany;startFill=0;endFill=0;" edge="1" parent="1" source="nB46SJz7qmsPy6LxUtB7-141" target="a7ZM1lEsg8ICDF3q9rtQ-1">
          <mxGeometry width="50" height="50" relative="1" as="geometry">
            <mxPoint x="1570" y="-180" as="sourcePoint" />
            <mxPoint x="1620" y="-230" as="targetPoint" />
          </mxGeometry>
        </mxCell>
        <mxCell id="a7ZM1lEsg8ICDF3q9rtQ-17" value="has" style="text;html=1;align=center;verticalAlign=middle;resizable=0;points=[];autosize=1;strokeColor=none;fillColor=none;" vertex="1" parent="1">
          <mxGeometry x="1590" y="-320" width="40" height="30" as="geometry" />
        </mxCell>
        <mxCell id="a7ZM1lEsg8ICDF3q9rtQ-18" value="" style="endArrow=none;html=1;rounded=0;exitX=1;exitY=0.5;exitDx=0;exitDy=0;entryX=0;entryY=0.258;entryDx=0;entryDy=0;entryPerimeter=0;" edge="1" parent="1" source="a7ZM1lEsg8ICDF3q9rtQ-8" target="nB46SJz7qmsPy6LxUtB7-28">
          <mxGeometry width="50" height="50" relative="1" as="geometry">
            <mxPoint x="1760" y="-250" as="sourcePoint" />
            <mxPoint x="1810" y="-300" as="targetPoint" />
          </mxGeometry>
        </mxCell>
        <mxCell id="a7ZM1lEsg8ICDF3q9rtQ-19" value="type of" style="text;html=1;align=center;verticalAlign=middle;resizable=0;points=[];autosize=1;strokeColor=none;fillColor=none;" vertex="1" parent="1">
          <mxGeometry x="1840" y="-402" width="60" height="30" as="geometry" />
        </mxCell>
      </root>
    </mxGraphModel>
  </diagram>
</mxfile>
